<svg xmlns="http://www.w3.org/2000/svg" id="svg2717" viewBox="0 0 269.88 132.29" height="500" width="1020"><style id="style5916">.lines{stroke:#a48585;stroke-width:28.45800018;fill:none}</style><g id="layer2"><g transform="matrix(1.2981 0 0 1.3972 -143.45 5.159)" id="g2586" opacity=".508" fill="none" stroke="#000"><g transform="translate(-41.321 -26.435)" id="g1788" stroke-width=".132"><path d="M203.74 22.538l-36.018 116.08" id="path1770"/><path d="M218.17 22.538l-28.585 116.08" id="path1772"/><path d="M232.59 22.538l-21.152 116.08" id="path1774"/><path d="M247.02 22.538l-13.719 116.08" id="path1776"/><path d="M261.44 22.538l-6.286 116.08" id="path1778"/><path d="M275.87 22.538l1.147 116.08" id="path1780"/><path d="M290.29 22.538l8.58 116.08" id="path1782"/><path d="M304.72 22.538l16.014 116.08" id="path1784"/><path d="M319.15 22.538l23.447 116.08" id="path1786"/></g><g transform="translate(-41.321 -26.435)" id="g1820" stroke-width=".132"><path d="M187.4 138.61l-35.568-15.93" id="path1790"/><path d="M231.11 138.61l-73.581-31.167" id="path1792"/><path d="M274.83 138.61L162.72 93.57" id="path1794"/><path d="M318.55 138.61L167.48 80.884" id="path1796"/><path d="M362.26 138.61L171.83 69.239" id="path1798"/><path d="M360.21 122.69L175.85 58.523" id="path1800"/><path d="M356.16 107.45l-176.6-58.842" id="path1802"/><path d="M352.47 93.574L183 39.419" id="path1804"/><path d="M349.09 80.888l-162.9-50.009" id="path1806"/><path d="M346 69.244L189.18 22.922" id="path1808"/><path d="M343.14 58.518l-126.42-35.98" id="path1810"/><path d="M340.51 48.606l-94.93-26.068" id="path1812"/><path d="M338.06 39.419l-63.635-16.881" id="path1814"/><path d="M335.79 30.879l-32.512-8.341" id="path1816"/><path d="M333.67 22.922l-1.545-.384" id="path1818"/></g><g transform="translate(-41.321 -26.435)" id="g1852" stroke-width=".132"><path d="M322.92 138.61l37.293-15.93" id="path1822"/><path d="M279.2 138.61l76.957-31.167" id="path1824"/><path d="M235.49 138.61l116.98-45.04" id="path1826"/><path d="M191.77 138.61L349.1 80.884" id="path1828"/><path d="M148.05 138.61l197.94-69.371" id="path1830"/><path d="M151.83 122.69l191.31-64.167" id="path1832"/><path d="M157.53 107.45L340.5 48.608" id="path1834"/><path d="M162.73 93.574l175.34-54.155" id="path1836"/><path d="M167.47 80.888l168.32-50.009" id="path1838"/><path d="M171.83 69.244l161.84-46.322" id="path1840"/><path d="M175.85 58.518l130.31-35.98" id="path1842"/><path d="M179.56 48.606l97.753-26.068" id="path1844"/><path d="M183 39.419l65.463-16.881" id="path1846"/><path d="M186.19 30.879l33.416-8.341" id="path1848"/><path d="M189.17 22.922l1.586-.384" id="path1850"/></g><g transform="translate(-41.321 -26.435)" id="g1874" stroke-width=".053"><path d="M196.53 22.538l-39.734 116.08" id="path1854"/><path d="M210.95 22.538l-32.301 116.08" id="path1856"/><path d="M225.38 22.538l-24.868 116.08" id="path1858"/><path d="M239.81 22.538l-17.435 116.08" id="path1860"/><path d="M254.23 22.538l-10.002 116.08" id="path1862"/><path d="M268.66 22.538l-2.57 116.08" id="path1864"/><path d="M283.08 22.538l4.864 116.08" id="path1866"/><path d="M297.51 22.538l12.297 116.08" id="path1868"/><path d="M311.93 22.538l19.73 116.08" id="path1870"/><path d="M326.36 22.538l27.163 116.08" id="path1872"/></g><g transform="translate(-41.321 -26.435)" id="g2036" stroke-width=".026"><path d="M190.76 22.538l-42.708 116.08" id="path1876"/><path d="M192.2 22.538l-41.964 116.08" id="path1878"/><path d="M193.64 22.538l-41.221 116.08" id="path1880"/><path d="M195.09 22.538l-40.478 116.08" id="path1882"/><path d="M197.97 22.538l-38.991 116.08" id="path1884"/><path d="M199.41 22.538l-38.248 116.08" id="path1886"/><path d="M200.86 22.538l-37.504 116.08" id="path1888"/><path d="M202.3 22.538l-36.761 116.08" id="path1890"/><path d="M205.18 22.538l-35.275 116.08" id="path1892"/><path d="M206.63 22.538l-34.531 116.08" id="path1894"/><path d="M208.07 22.538l-33.788 116.08" id="path1896"/><path d="M209.51 22.538l-33.045 116.08" id="path1898"/><path d="M212.4 22.538l-31.558 116.08" id="path1900"/><path d="M213.84 22.538l-30.815 116.08" id="path1902"/><path d="M215.28 22.538l-30.071 116.08" id="path1904"/><path d="M216.72 22.538l-29.328 116.08" id="path1906"/><path d="M219.61 22.538l-27.841 116.08" id="path1908"/><path d="M221.05 22.538l-27.098 116.08" id="path1910"/><path d="M222.49 22.538l-26.355 116.08" id="path1912"/><path d="M223.94 22.538l-25.612 116.08" id="path1914"/><path d="M226.82 22.538l-24.125 116.08" id="path1916"/><path d="M228.26 22.538l-23.382 116.08" id="path1918"/><path d="M229.71 22.538l-22.638 116.08" id="path1920"/><path d="M231.15 22.538l-21.895 116.08" id="path1922"/><path d="M234.04 22.538l-20.408 116.08" id="path1924"/><path d="M235.48 22.538l-19.665 116.08" id="path1926"/><path d="M236.92 22.538l-18.922 116.08" id="path1928"/><path d="M238.36 22.538l-18.178 116.08" id="path1930"/><path d="M241.25 22.538l-16.692 116.08" id="path1932"/><path d="M242.69 22.538l-15.949 116.08" id="path1934"/><path d="M244.13 22.538l-15.205 116.08" id="path1936"/><path d="M245.58 22.538l-14.462 116.08" id="path1938"/><path d="M248.46 22.538l-12.975 116.08" id="path1940"/><path d="M249.9 22.538l-12.232 116.08" id="path1942"/><path d="M251.35 22.538l-11.489 116.08" id="path1944"/><path d="M252.79 22.538l-10.745 116.08" id="path1946"/><path d="M255.67 22.538l-9.259 116.08" id="path1948"/><path d="M257.12 22.538l-8.515 116.08" id="path1950"/><path d="M258.56 22.538l-7.772 116.08" id="path1952"/><path d="M260 22.538l-7.029 116.08" id="path1954"/><path d="M262.89 22.538l-5.542 116.08" id="path1956"/><path d="M264.33 22.538l-4.799 116.08" id="path1958"/><path d="M265.77 22.538l-4.056 116.08" id="path1960"/><path d="M267.21 22.538l-3.312 116.08" id="path1962"/><path d="M270.1 22.538l-1.826 116.08" id="path1964"/><path d="M271.54 22.538l-1.083 116.08" id="path1966"/><path d="M272.98 22.538l-.34 116.08" id="path1968"/><path d="M274.43 22.538l.404 116.08" id="path1970"/><path d="M277.31 22.538l1.89 116.08" id="path1972"/><path d="M278.75 22.538l2.634 116.08" id="path1974"/><path d="M280.2 22.538l3.377 116.08" id="path1976"/><path d="M281.64 22.538l4.12 116.08" id="path1978"/><path d="M284.52 22.538l5.607 116.08" id="path1980"/><path d="M285.97 22.538l6.35 116.08" id="path1982"/><path d="M287.41 22.538l7.094 116.08" id="path1984"/><path d="M288.85 22.538l7.837 116.08" id="path1986"/><path d="M291.74 22.538l9.324 116.08" id="path1988"/><path d="M293.18 22.538l10.067 116.08" id="path1990"/><path d="M294.62 22.538l10.81 116.08" id="path1992"/><path d="M296.06 22.538l11.554 116.08" id="path1994"/><path d="M298.95 22.538l13.04 116.08" id="path1996"/><path d="M300.39 22.538l13.784 116.08" id="path1998"/><path d="M301.83 22.538l14.527 116.08" id="path2000"/><path d="M303.28 22.538l15.27 116.08" id="path2002"/><path d="M306.16 22.538l16.757 116.08" id="path2004"/><path d="M307.6 22.538l17.5 116.08" id="path2006"/><path d="M309.05 22.538l18.243 116.08" id="path2008"/><path d="M310.49 22.538l18.987 116.08" id="path2010"/><path d="M313.37 22.538l20.473 116.08" id="path2012"/><path d="M314.82 22.538l21.217 116.08" id="path2014"/><path d="M316.26 22.538l21.96 116.08" id="path2016"/><path d="M317.7 22.538l22.703 116.08" id="path2018"/><path d="M320.59 22.538l24.19 116.08" id="path2020"/><path d="M322.03 22.538l24.933 116.08" id="path2022"/><path d="M323.47 22.538l25.676 116.08" id="path2024"/><path d="M324.92 22.538l26.42 116.08" id="path2026"/><path d="M327.8 22.538l27.906 116.08" id="path2028"/><path d="M329.24 22.538l28.65 116.08" id="path2030"/><path d="M330.69 22.538l29.393 116.08" id="path2032"/><path d="M332.13 22.538l30.136 116.08" id="path2034"/></g><g transform="translate(-41.321 -26.435)" id="g2068" stroke-width=".053"><path d="M165.54 138.61l-16.777-7.736" id="path2038"/><path d="M209.25 138.61l-54.506-23.731" id="path2040"/><path d="M252.97 138.61l-92.784-38.262" id="path2042"/><path d="M296.69 138.61L165.15 87.088" id="path2044"/><path d="M340.41 138.61L169.7 74.939" id="path2046"/><path d="M362.39 130.88L173.88 63.774" id="path2048"/><path d="M358.14 114.88l-180.4-61.418" id="path2050"/><path d="M354.27 100.35L181.31 43.924" id="path2052"/><path d="M350.74 87.092l-166.12-52.02" id="path2054"/><path d="M347.51 74.944l-159.8-48.112" id="path2056"/><path d="M344.54 63.773L202.3 22.538" id="path2058"/><path d="M341.8 53.466L231.15 22.538" id="path2060"/><path d="M339.26 43.927L260 22.538" id="path2062"/><path d="M336.9 35.072l-48.053-12.534" id="path2064"/><path d="M334.71 26.832l-17.01-4.294" id="path2066"/></g><g transform="translate(-41.321 -26.435)" id="g2310" stroke-width=".026"><path d="M148.05 138.61l-1.857-.877" id="path2070"/><path d="M152.42 138.61l-5.577-2.618" id="path2072"/><path d="M156.79 138.61l-9.304-4.341" id="path2074"/><path d="M161.17 138.61l-13.037-6.047" id="path2076"/><path d="M169.91 138.61l-20.523-9.407" id="path2078"/><path d="M174.28 138.61l-24.275-11.062" id="path2080"/><path d="M178.65 138.61l-28.033-12.701" id="path2082"/><path d="M183.02 138.61l-31.798-14.323" id="path2084"/><path d="M191.77 138.61l-39.344-17.52" id="path2086"/><path d="M196.14 138.61l-43.126-19.096" id="path2088"/><path d="M200.51 138.61l-46.914-20.656" id="path2090"/><path d="M204.88 138.61l-50.708-22.201" id="path2092"/><path d="M213.63 138.61l-58.311-25.246" id="path2094"/><path d="M218 138.61l-62.121-26.747" id="path2096"/><path d="M222.37 138.61l-65.936-28.234" id="path2098"/><path d="M226.74 138.61l-69.756-29.707" id="path2100"/><path d="M235.49 138.61l-77.412-32.612" id="path2102"/><path d="M239.86 138.61l-81.248-34.044" id="path2104"/><path d="M244.23 138.61l-85.088-35.463" id="path2106"/><path d="M248.6 138.61l-88.934-36.869" id="path2108"/><path d="M257.34 138.61l-96.639-39.643" id="path2110"/><path d="M261.72 138.61L161.22 97.6" id="path2112"/><path d="M266.09 138.61L161.73 96.244" id="path2114"/><path d="M270.46 138.61L162.23 94.901" id="path2116"/><path d="M279.2 138.61L163.22 92.25" id="path2118"/><path d="M283.57 138.61L163.71 90.942" id="path2120"/><path d="M287.95 138.61L164.2 89.646" id="path2122"/><path d="M292.32 138.61L164.68 88.361" id="path2124"/><path d="M301.06 138.61L165.62 85.825" id="path2126"/><path d="M305.43 138.61L166.09 84.574" id="path2128"/><path d="M309.8 138.61L166.55 83.333" id="path2130"/><path d="M314.18 138.61L167.02 82.103" id="path2132"/><path d="M322.92 138.61L167.93 79.674" id="path2134"/><path d="M327.29 138.61L168.37 78.476" id="path2136"/><path d="M331.66 138.61L168.82 77.287" id="path2138"/><path d="M336.03 138.61L169.26 76.108" id="path2140"/><path d="M344.78 138.61L170.14 73.78" id="path2142"/><path d="M349.15 138.61L170.56 72.631" id="path2144"/><path d="M353.52 138.61L170.99 71.491" id="path2146"/><path d="M357.89 138.61L171.41 70.361" id="path2148"/><path d="M364.22 137.74L172.25 68.134" id="path2150"/><path d="M363.75 136L172.66 67.032" id="path2152"/><path d="M363.3 134.27L173.08 65.931" id="path2154"/><path d="M362.84 132.57L173.48 64.852" id="path2156"/><path d="M361.95 129.21L174.28 62.708" id="path2158"/><path d="M361.51 127.55L174.68 61.644" id="path2160"/><path d="M361.07 125.91l-186-65.319" id="path2162"/><path d="M360.64 124.29L175.46 59.551" id="path2164"/><path d="M359.79 121.09L176.23 57.487" id="path2166"/><path d="M359.37 119.52L176.61 56.475" id="path2168"/><path d="M358.96 117.96L177 55.464" id="path2170"/><path d="M358.54 116.41L177.36 54.457" id="path2172"/><path d="M357.73 113.37L178.1 52.481" id="path2174"/><path d="M357.33 111.87L178.47 51.503" id="path2176"/><path d="M356.94 110.38l-178.1-59.852" id="path2178"/><path d="M356.55 108.91L179.2 49.566" id="path2180"/><path d="M355.77 106L179.91 47.654" id="path2182"/><path d="M355.39 104.57L180.26 46.713" id="path2184"/><path d="M355.02 103.15l-174.4-57.374" id="path2186"/><path d="M354.64 101.75L180.96 44.853" id="path2188"/><path d="M353.9 98.972l-172.25-55.96" id="path2190"/><path d="M353.54 97.604L181.99 42.103" id="path2192"/><path d="M353.18 96.249L182.33 41.202" id="path2194"/><path d="M352.82 94.905L182.66 40.307" id="path2196"/><path d="M352.12 92.255L183.33 38.537" id="path2198"/><path d="M351.77 90.947L183.66 37.661" id="path2200"/><path d="M351.42 89.651L183.98 36.792" id="path2202"/><path d="M351.08 88.366L184.3 35.929" id="path2204"/><path d="M350.41 85.83L184.94 34.222" id="path2206"/><path d="M350.07 84.578L185.25 33.377" id="path2208"/><path d="M349.74 83.338L185.57 32.539" id="path2210"/><path d="M349.42 82.108L185.89 31.706" id="path2212"/><path d="M348.77 79.679L186.5 30.058" id="path2214"/><path d="M348.45 78.48L186.8 29.243" id="path2216"/><path d="M348.14 77.292L187.11 28.434" id="path2218"/><path d="M347.82 76.113L187.41 27.63" id="path2220"/><path d="M347.2 73.785L188 26.039" id="path2222"/><path d="M346.9 72.636L188.3 25.252" id="path2224"/><path d="M346.59 71.496l-158-47.026" id="path2226"/><path d="M346.29 70.365L188.88 23.693" id="path2228"/><path d="M345.7 68.132L190.76 22.538" id="path2230"/><path d="M345.41 67.029L193.65 22.538" id="path2232"/><path d="M345.12 65.935L196.53 22.538" id="path2234"/><path d="M344.83 64.85L199.42 22.538" id="path2236"/><path d="M344.26 62.705L205.19 22.538" id="path2238"/><path d="M343.97 61.646l-135.9-39.108" id="path2240"/><path d="M343.69 60.595L210.95 22.538" id="path2242"/><path d="M343.42 59.552L213.84 22.538" id="path2244"/><path d="M342.87 57.492L219.61 22.538" id="path2246"/><path d="M342.6 56.474L222.5 22.538" id="path2248"/><path d="M342.33 55.463L225.38 22.538" id="path2250"/><path d="M342.06 54.461l-113.8-31.923" id="path2252"/><path d="M341.54 52.479l-107.5-29.941" id="path2254"/><path d="M341.28 51.5L236.93 22.538" id="path2256"/><path d="M341.02 50.528l-101.21-27.99" id="path2258"/><path d="M340.76 49.563l-98.07-27.025" id="path2260"/><path d="M340.25 47.656l-91.792-25.118" id="path2262"/><path d="M340 46.713l-88.656-24.175" id="path2264"/><path d="M339.75 45.778l-85.522-23.239" id="path2266"/><path d="M339.51 44.849l-82.39-22.311" id="path2268"/><path d="M339.02 43.012l-76.131-20.474" id="path2270"/><path d="M338.78 42.104l-73.004-19.566" id="path2272"/><path d="M338.54 41.202l-69.88-18.664" id="path2274"/><path d="M338.3 40.307l-66.756-17.769" id="path2276"/><path d="M337.83 38.537l-60.515-15.999" id="path2278"/><path d="M337.59 37.661l-57.397-15.123" id="path2280"/><path d="M337.36 36.792l-54.281-14.254" id="path2282"/><path d="M337.13 35.929l-51.166-13.391" id="path2284"/><path d="M336.68 34.222l-44.942-11.684" id="path2286"/><path d="M336.45 33.377l-41.832-10.839" id="path2288"/><path d="M336.23 32.539l-38.724-10.001" id="path2290"/><path d="M336.01 31.706l-35.617-9.168" id="path2292"/><path d="M335.57 30.058l-29.409-7.52" id="path2294"/><path d="M335.35 29.243l-26.307-6.705" id="path2296"/><path d="M335.14 28.434l-23.207-5.896" id="path2298"/><path d="M334.93 27.63l-20.108-5.092" id="path2300"/><path d="M334.5 26.039l-13.914-3.5" id="path2302"/><path d="M334.29 25.252l-10.82-2.713" id="path2304"/><path d="M334.08 24.47l-7.727-1.931" id="path2306"/><path d="M333.88 23.693l-4.635-1.155" id="path2308"/></g><g transform="translate(-41.321 -26.435)" id="g2342" stroke-width=".053"><path d="M344.78 138.61l17.615-7.736" id="path2312"/><path d="M301.06 138.61l57.077-23.731" id="path2314"/><path d="M257.34 138.61l96.928-38.262" id="path2316"/><path d="M213.63 138.61l137.12-51.522" id="path2318"/><path d="M169.91 138.61l177.6-63.671" id="path2320"/><path d="M148.76 130.88l195.78-67.106" id="path2322"/><path d="M154.75 114.88L341.8 53.462" id="path2324"/><path d="M160.19 100.35l179.07-56.426" id="path2326"/><path d="M165.15 87.092l171.75-52.02" id="path2328"/><path d="M169.7 74.944l165.01-48.112" id="path2330"/><path d="M173.88 63.773l146.71-41.235" id="path2332"/><path d="M177.74 53.466l114-30.928" id="path2334"/><path d="M181.31 43.927l81.576-21.389" id="path2336"/><path d="M184.62 35.072l49.411-12.534" id="path2338"/><path d="M187.71 26.832l17.475-4.293" id="path2340"/></g><path d="M320.939 112.175l1.952-.877" id="path2344" stroke-width=".026"/><path d="M316.569 112.175l5.861-2.618" id="path2346" stroke-width=".026"/><path d="M312.199 112.175l9.774-4.341" id="path2348" stroke-width=".026"/><path d="M307.829 112.175l13.692-6.047" id="path2350" stroke-width=".026"/><path d="M299.089 112.175l21.542-9.407" id="path2352" stroke-width=".026"/><path d="M294.709 112.175l25.473-11.062" id="path2354" stroke-width=".026"/><path d="M290.339 112.175l29.409-12.701" id="path2356" stroke-width=".026"/><path d="M285.969 112.175l33.349-14.323" id="path2358" stroke-width=".026"/><path d="M277.229 112.175l41.242-17.52" id="path2360" stroke-width=".026"/><path d="M272.859 112.175l45.195-19.096" id="path2362" stroke-width=".026"/><path d="M268.479 112.175l49.151-20.656" id="path2364" stroke-width=".026"/><path d="M264.109 112.175l53.112-22.201" id="path2366" stroke-width=".026"/><path d="M255.369 112.175l61.045-25.246" id="path2368" stroke-width=".026"/><path d="M250.999 112.175l65.017-26.747" id="path2370" stroke-width=".026"/><path d="M246.629 112.175l68.994-28.234" id="path2372" stroke-width=".026"/><path d="M242.249 112.175l72.973-29.707" id="path2374" stroke-width=".026"/><path d="M233.509 112.175l80.944-32.612" id="path2376" stroke-width=".026"/><path d="M229.139 112.175l84.935-34.044" id="path2378" stroke-width=".026"/><path d="M224.769 112.175l88.929-35.463" id="path2380" stroke-width=".026"/><path d="M220.399 112.175l92.927-36.869" id="path2382" stroke-width=".026"/><path d="M211.649 112.175l100.93-39.643" id="path2384" stroke-width=".026"/><path d="M207.279 112.175l104.94-41.01" id="path2386" stroke-width=".026"/><path d="M202.909 112.175l108.95-42.366" id="path2388" stroke-width=".026"/><path d="M198.539 112.175l112.97-43.709" id="path2390" stroke-width=".026"/><path d="M189.789 112.175l121-46.36" id="path2392" stroke-width=".026"/><path d="M185.419 112.175l125.03-47.668" id="path2394" stroke-width=".026"/><path d="M181.049 112.175l129.05-48.964" id="path2396" stroke-width=".026"/><path d="M176.679 112.175l133.08-50.249" id="path2398" stroke-width=".026"/><path d="M167.929 112.175l141.15-52.785" id="path2400" stroke-width=".026"/><path d="M163.559 112.175l145.19-54.036" id="path2402" stroke-width=".026"/><path d="M159.189 112.175l149.23-55.277" id="path2404" stroke-width=".026"/><path d="M154.819 112.175l153.28-56.507" id="path2406" stroke-width=".026"/><path d="M146.079 112.175l161.38-58.936" id="path2408" stroke-width=".026"/><path d="M141.699 112.175l165.43-60.134" id="path2410" stroke-width=".026"/><path d="M137.329 112.175l169.48-61.323" id="path2412" stroke-width=".026"/><path d="M132.959 112.175l173.54-62.502" id="path2414" stroke-width=".026"/><path d="M124.219 112.175l181.67-64.83" id="path2416" stroke-width=".026"/><path d="M119.849 112.175l185.73-65.979" id="path2418" stroke-width=".026"/><path d="M115.469 112.175l189.8-67.119" id="path2420" stroke-width=".026"/><path d="M111.099 112.175l193.87-68.249" id="path2422" stroke-width=".026"/><path d="M104.869 111.305l199.51-69.606" id="path2424" stroke-width=".026"/><path d="M105.529 109.565l198.56-68.968" id="path2426" stroke-width=".026"/><path d="M106.169 107.835l197.62-68.339" id="path2428" stroke-width=".026"/><path d="M106.809 106.135l196.7-67.718" id="path2430" stroke-width=".026"/><path d="M108.069 102.775l194.87-66.502" id="path2432" stroke-width=".026"/><path d="M108.689 101.115l193.97-65.906" id="path2434" stroke-width=".026"/><path d="M109.299 99.475l193.08-65.319" id="path2436" stroke-width=".026"/><path d="M109.909 97.855l192.19-64.739" id="path2438" stroke-width=".026"/><path d="M111.099 94.655l190.45-63.603" id="path2440" stroke-width=".026"/><path d="M111.689 93.085l189.58-63.045" id="path2442" stroke-width=".026"/><path d="M112.279 91.525l188.73-62.496" id="path2444" stroke-width=".026"/><path d="M112.859 89.975l187.89-61.953" id="path2446" stroke-width=".026"/><path d="M113.999 86.935l186.22-60.889" id="path2448" stroke-width=".026"/><path d="M114.559 85.435l185.4-60.367" id="path2450" stroke-width=".026"/><path d="M115.109 83.945l184.58-59.852" id="path2452" stroke-width=".026"/><path d="M115.669 82.475l183.77-59.344" id="path2454" stroke-width=".026"/><path d="M116.749 79.565l182.18-58.346" id="path2456" stroke-width=".026"/><path d="M117.289 78.135l181.39-57.857" id="path2458" stroke-width=".026"/><path d="M117.819 76.715l180.61-57.374" id="path2460" stroke-width=".026"/><path d="M118.349 75.315l179.84-56.897" id="path2462" stroke-width=".026"/><path d="M119.379 72.537l178.31-55.96" id="path2464" stroke-width=".026"/><path d="M119.899 71.169l177.56-55.501" id="path2466" stroke-width=".026"/><path d="M120.399 69.814l176.81-55.047" id="path2468" stroke-width=".026"/><path d="M120.909 68.47l176.07-54.598" id="path2470" stroke-width=".026"/><path d="M121.899 65.82l174.61-53.718" id="path2472" stroke-width=".026"/><path d="M122.389 64.512l173.88-53.286" id="path2474" stroke-width=".026"/><path d="M122.869 63.216l173.17-52.859" id="path2476" stroke-width=".026"/><path d="M123.349 61.931l172.46-52.437" id="path2478" stroke-width=".026"/><path d="M124.299 59.395l171.05-51.608" id="path2480" stroke-width=".026"/><path d="M124.769 58.143l170.36-51.201" id="path2482" stroke-width=".026"/><path d="M125.239 56.903l169.67-50.799" id="path2484" stroke-width=".026"/><path d="M125.699 55.673l168.99-50.402" id="path2486" stroke-width=".026"/><path d="M126.609 53.244l167.64-49.621" id="path2488" stroke-width=".026"/><path d="M127.059 52.045l166.98-49.237" id="path2490" stroke-width=".026"/><path d="M127.499 50.857l166.32-48.858" id="path2492" stroke-width=".026"/><path d="M127.939 49.678l165.66-48.483" id="path2494" stroke-width=".026"/><path d="M128.809 47.35L293.179-.396" id="path2496" stroke-width=".026"/><path d="M129.239 46.201l163.73-47.384" id="path2498" stroke-width=".026"/><path d="M129.669 45.061l163.09-47.026" id="path2500" stroke-width=".026"/><path d="M130.089 43.93l162.46-46.672" id="path2502" stroke-width=".026"/><path d="M130.929 41.697l159.88-45.594" id="path2504" stroke-width=".026"/><path d="M131.339 40.594l156.58-44.491" id="path2506" stroke-width=".026"/><path d="M131.749 39.5l153.29-43.397" id="path2508" stroke-width=".026"/><path d="M132.159 38.415l149.99-42.312" id="path2510" stroke-width=".026"/><path d="M132.959 36.27l143.42-40.167" id="path2512" stroke-width=".026"/><path d="M133.359 35.211l140.14-39.108" id="path2514" stroke-width=".026"/><path d="M133.749 34.16l136.86-38.057" id="path2516" stroke-width=".026"/><path d="M134.139 33.117l133.59-37.014" id="path2518" stroke-width=".026"/><path d="M134.909 31.057l127.05-34.954" id="path2520" stroke-width=".026"/><path d="M135.289 30.039l123.78-33.936" id="path2522" stroke-width=".026"/><path d="M135.669 29.028l120.52-32.925" id="path2524" stroke-width=".026"/><path d="M136.049 28.026l117.26-31.923" id="path2526" stroke-width=".026"/><path d="M136.789 26.044l110.74-29.941" id="path2528" stroke-width=".026"/><path d="M137.159 25.065l107.49-28.962" id="path2530" stroke-width=".026"/><path d="M137.519 24.093l104.24-27.99" id="path2532" stroke-width=".026"/><path d="M137.879 23.128l101-27.025" id="path2534" stroke-width=".026"/><path d="M138.589 21.221l94.512-25.118" id="path2536" stroke-width=".026"/><path d="M138.949 20.278l91.274-24.175" id="path2538" stroke-width=".026"/><path d="M139.299 19.343l88.039-23.239" id="path2540" stroke-width=".026"/><path d="M139.639 18.414l84.806-22.311" id="path2542" stroke-width=".026"/><path d="M140.329 16.577l78.349-20.474" id="path2544" stroke-width=".026"/><path d="M140.669 15.669l75.123-19.566" id="path2546" stroke-width=".026"/><path d="M141.009 14.767L212.91-3.897" id="path2548" stroke-width=".026"/><path d="M141.339 13.872L210.02-3.897" id="path2550" stroke-width=".026"/><path d="M142.009 12.102l62.248-15.999" id="path2552" stroke-width=".026"/><path d="M142.339 11.226l59.035-15.123" id="path2554" stroke-width=".026"/><path d="M142.659 10.357l55.825-14.254" id="path2556" stroke-width=".026"/><path d="M142.979 9.494l52.617-13.391" id="path2558" stroke-width=".026"/><path d="M143.619 7.787l46.207-11.684" id="path2560" stroke-width=".026"/><path d="M143.939 6.942l43.006-10.839" id="path2562" stroke-width=".026"/><path d="M144.249 6.104l39.807-10.001" id="path2564" stroke-width=".026"/><path d="M144.559 5.271l36.61-9.168" id="path2566" stroke-width=".026"/><path d="M145.179 3.623l30.223-7.52" id="path2568" stroke-width=".026"/><path d="M145.489 2.808l27.033-6.705" id="path2570" stroke-width=".026"/><path d="M145.789 1.999l23.845-5.896" id="path2572" stroke-width=".026"/><path d="M146.089 1.195l20.659-5.092" id="path2574" stroke-width=".026"/><path d="M146.689-.396l14.293-3.5" id="path2576" stroke-width=".026"/><path d="M146.979-1.183l11.114-2.713" id="path2578" stroke-width=".026"/><path d="M147.269-1.965l7.936-1.931" id="path2580" stroke-width=".026"/><path d="M147.559-2.742l4.76-1.155" id="path2582" stroke-width=".026"/><path d="M103.72 112.64L147.641-4.09h144.99l31.279 116.73H103.72" id="path2584" stroke-width=".265"/></g></g><g id="layer3"><path id="demo-signup" d="M225.267 96.27l16.077-21.974c2.005-2.94 2.4-4.87-.673-10.221l-17.609-30.756" class="lines" fill="none" stroke="#a48585" stroke-width="1.5"/><path id="cs-demo" d="M174.855 52.237l6.398-.049c3.645-.112 4.386 4.408 5.482 8.374l5.446 19.52c1.088 4.11 3.094 5.57 6.195 7.517l26.892 8.671" class="lines" fill="none" stroke="#a48585" stroke-width="1.5"/><path id="wp-demo" d="M170.236 24.973l7.624-.033c3.056-.079 4.038 1.026 4.865 3.695l14.5 48.44c1.175 3.984 1.521 4.362 4.59 6.228l23.453 12.969" class="lines" fill="none" stroke="#a48585" stroke-width="1.5"/><path id="product-signup" d="M115.288 14.753l73.534-.304c3.65-.036 4.59-.124 7.89 2.11l26.35 16.758" class="lines" fill="none" stroke="#a48585" stroke-width="1.5"/><path id="sh-signup" d="M223.063 33.317l-4.502 3.77c-2.425 2.218-4.007 1.98-6.538 1.966l-41.389-.024c-6.564.313-7.394 1.332-11.179 4.021l-37.2 31.403" class="lines" fill="none" stroke="#a48585" stroke-width="1.5"/><path id="pricing-sh" d="M122.253 74.455l-19.873.088c-7.915.158-7.833-.513-11.587-4.51L74.107 52.54" class="lines" fill="none" stroke="#a48585" stroke-width="1.5"/><path id="pricing-product" d="M115.288 14.753l-13.478 8.73c-3.346 1.884-3.662 4.302-4.37 6.448l-3.271 10.263c-1.503 3.624-5.064 5.396-9.165 7.357l-10.896 4.985" class="lines" fill="none" stroke="#a48585" stroke-width="1.5"/><path id="analytic-wp" d="M170.236 24.973l-14.904.114c-4.123.031-5.877.62-5.441 4.782 1.66 22.1 7.693 30.844 10.41 71.426.756 10.828-9.813 5.445-14.136 6.545l-35.444 15.012" class="lines" fill="none" stroke="#a48585" stroke-width="1.5"/><path id="analytic-demo" d="M110.721 122.852l116.392-.11c9.517-.008 7.049-6.835 7.049-6.835L225.27 96.27" class="lines" fill="none" stroke="#a48585" stroke-width="1.5"/><path id="industry-cs" d="M46.035 103.092l44.127-37.29c6.34-5.394 6.662-5.85 14.573-5.794l52.383.281c5.122-.103 5.474-.371 10.121-3.269l7.618-4.783" class="lines" fill="none" stroke="#a48585" stroke-width="1.5"/><path id="industry-analytic" d="M46.035 103.092l-7.934 10.198c-8.17 8.512-6.752 10.075 1.007 9.652l52.015.095 19.6-.185" class="lines" fill="none" stroke="#a48585" stroke-width="1.5"/><path id="pricing-demo" d="M225.267 96.27l-157.184.796c-4.603-.03-4.693-2.953-3.892-5.3l10.975-39.227" class="lines" fill="none" stroke="#a48585" stroke-width="1.5"/><path id="pricing-singup" d="M75.167 52.539l34.099-.009c5.727-.301 7.013-.59 8.079-5.323l1.125-9.125c.356-3.691 2.23-4.58 6.872-4.796l97.723.033" class="lines" fill="none" stroke="#a48585" stroke-width="1.5"/><path id="home-pricing" d="M75.167 52.539l-8.365.001c-5 .002-5.02.02-1.916-6.695l3.85-8.536c1.082-2.402.553-4.212-2.724-4.183l-1.293-.01c-3.326.08-4.966-.366-5.006-2.924l-.575-7.2" class="lines" fill="none" stroke="#a48585" stroke-width="1.5"/><path id="home-product" d="M59.138 22.991l28.043-.001c3.805 0 6.259-.279 7.522-4.23 1.187-3.71 2.295-4.084 7.77-4.084l12.817.08" class="lines" fill="none" stroke="#a48585" stroke-width="1.5"/><path id="home-industry" d="M59.138 22.991L33.673 65.993c-5.005 8.736-4.894 8.667 3.468 8.664l6.576-.003c8.496-.003 8.394.043 4.874 7.871l-6.957 15.47c-1.88 4.18-.502 5.094 1.408 5.099l2.993-.002" class="lines" fill="none" stroke="#a48585" stroke-width="1.5"/></g><g id="layer1"><g id="home" transform="translate(46.832 -118.852)"><text x="17.654" y="137.088" style="line-height:125%;font-variant-ligatures:normal;font-variant-caps:normal;font-variant-numeric:normal;font-feature-settings:normal" id="text2608" font-size="10.583" font-family="Noto Mono" letter-spacing="0" word-spacing="0" stroke-width=".265"><tspan x="17.654" y="137.088" id="tspan2606" font-weight="700" font-size="5.644" font-family="Nimbus Mono L">Home</tspan></text><g transform="translate(76.774 173.75) scale(.0527)" id="g2614" fill="#7fd3d1" stroke="#000"><path d="M-1217.2-842.12h-.335c-40.58 0-73.594 33.002-73.594 73.567 0 26.59 12.11 61.683 35.992 104.3 17.706 31.598 35.66 55.799 35.84 56.04a2.648 2.648 0 0 0 2.123 1.067l.072-.001a2.65 2.65 0 0 0 2.133-1.182c.178-.268 18.004-27.19 35.59-60.115 23.737-44.442 35.773-78.125 35.773-100.11 0-40.565-33.016-73.567-73.595-73.567z" id="path2610" stroke-width="15.699"/><circle cx="-1216.8" cy="-600.91" r="22.589" id="circle2612" opacity=".99" stroke-width="9.486" stroke-linecap="round" stroke-linejoin="bevel"/></g></g><g id="product" transform="translate(16.323 -111.312)"><text x="103.696" y="121.471" style="line-height:125%;font-variant-ligatures:normal;font-variant-caps:normal;font-variant-numeric:normal;font-feature-settings:normal" id="text2619" font-size="10.583" font-family="Noto Mono" letter-spacing="0" word-spacing="0" stroke-width=".265"><tspan x="103.696" y="121.471" id="tspan2617" font-weight="700" font-size="5.644" font-family="Nimbus Mono L">Product</tspan></text><g transform="translate(162.76 157.94) scale(.0527)" id="g2625" fill="#7fd3d1" stroke="#000"><path d="M-1217.2-842.12h-.335c-40.58 0-73.594 33.002-73.594 73.567 0 26.59 12.11 61.683 35.992 104.3 17.706 31.598 35.66 55.799 35.84 56.04a2.648 2.648 0 0 0 2.123 1.067l.072-.001a2.65 2.65 0 0 0 2.133-1.182c.178-.268 18.004-27.19 35.59-60.115 23.737-44.442 35.773-78.125 35.773-100.11 0-40.565-33.016-73.567-73.595-73.567z" id="path2621" stroke-width="15.699"/><circle cx="-1216.8" cy="-600.91" r="22.589" id="circle2623" opacity=".99" stroke-width="9.486" stroke-linecap="round" stroke-linejoin="bevel"/></g></g><g id="wp" transform="translate(-22.733 -120.621)"><g transform="translate(252.47 177.21) scale(.0527)" id="g2636"><text transform="translate(-4789.9 -3362.1) scale(18.972)" x="142.466" y="142.169" style="line-height:125%;font-variant-ligatures:normal;font-variant-caps:normal;font-variant-numeric:normal;font-feature-settings:normal" id="text2630" font-size="10.583" font-family="Noto Mono" letter-spacing="0" word-spacing="0" stroke-width=".265"><tspan x="142.466" y="142.169" id="tspan2628" font-weight="700" font-size="5.644" font-family="Nimbus Mono L">White Papers</tspan></text><path d="M-1217.2-842.12h-.335c-40.58 0-73.594 33.002-73.594 73.567 0 26.59 12.11 61.683 35.992 104.3 17.706 31.598 35.66 55.799 35.84 56.04a2.648 2.648 0 0 0 2.123 1.067l.072-.001a2.65 2.65 0 0 0 2.133-1.182c.178-.268 18.004-27.19 35.59-60.115 23.737-44.442 35.773-78.125 35.773-100.11 0-40.565-33.016-73.567-73.595-73.567z" id="path2632" fill="#7fd3d1" stroke="#000" stroke-width="15.699"/><circle cx="-1216.8" cy="-600.91" r="22.589" id="circle2634" opacity=".99" fill="#7fd3d1" stroke="#000" stroke-width="9.486" stroke-linecap="round" stroke-linejoin="bevel"/></g></g><g id="signup" transform="translate(-40.572 -125.98)"><text x="268.239" y="155.258" style="line-height:125%;font-variant-ligatures:normal;font-variant-caps:normal;font-variant-numeric:normal;font-feature-settings:normal" id="text2641" font-size="10.583" font-family="Noto Mono" letter-spacing="0" word-spacing="0" stroke-width=".265"><tspan x="268.239" y="155.258" id="tspan2639" font-weight="700" font-size="5.644" font-family="Nimbus Mono L">Sign Up</tspan></text><g transform="translate(327.9 190.99) scale(.0527)" id="g2647" fill="#7fd3d1" stroke="#000"><path d="M-1217.2-842.12h-.335c-40.58 0-73.594 33.002-73.594 73.567 0 26.59 12.11 61.683 35.992 104.3 17.706 31.598 35.66 55.799 35.84 56.04a2.648 2.648 0 0 0 2.123 1.067l.072-.001a2.65 2.65 0 0 0 2.133-1.182c.178-.268 18.004-27.19 35.59-60.115 23.737-44.442 35.773-78.125 35.773-100.11 0-40.565-33.016-73.567-73.595-73.567z" id="path2643" stroke-width="15.699"/><circle cx="-1216.8" cy="-600.91" r="22.589" id="circle2645" opacity=".99" stroke-width="9.486" stroke-linecap="round" stroke-linejoin="bevel"/></g></g><g id="demo" transform="translate(2.15 104.63)"><text x="227.225" y="-7.143" style="line-height:125%;font-variant-ligatures:normal;font-variant-caps:normal;font-variant-numeric:normal;font-feature-settings:normal" id="text2652" font-size="10.583" font-family="Noto Mono" letter-spacing="0" word-spacing="0" stroke-width=".265"><tspan x="227.225" y="-7.143" id="tspan2650" font-weight="700" font-size="5.644" font-family="Nimbus Mono L">Demo Request</tspan></text><g transform="translate(286.85 23.517) scale(.0527)" id="g2658" fill="#7fd3d1" stroke="#000"><path d="M-1217.2-842.12h-.335c-40.58 0-73.594 33.002-73.594 73.567 0 26.59 12.11 61.683 35.992 104.3 17.706 31.598 35.66 55.799 35.84 56.04a2.648 2.648 0 0 0 2.123 1.067l.072-.001a2.65 2.65 0 0 0 2.133-1.182c.178-.268 18.004-27.19 35.59-60.115 23.737-44.442 35.773-78.125 35.773-100.11 0-40.565-33.016-73.567-73.595-73.567z" id="path2654" stroke-width="15.699"/><circle cx="-1216.8" cy="-600.91" r="22.589" id="circle2656" opacity=".99" stroke-width="9.486" stroke-linecap="round" stroke-linejoin="bevel"/></g></g><g transform="translate(0 -164.71)" id="cs"><text x="173.187" y="224.323" style="line-height:125%;font-variant-ligatures:normal;font-variant-caps:normal;font-variant-numeric:normal;font-feature-settings:normal" id="text2663" font-size="10.583" font-family="Noto Mono" letter-spacing="0" word-spacing="0" stroke-width=".265"><tspan x="173.187" y="224.323" id="tspan2661" font-weight="700" font-size="5.644" font-family="Nimbus Mono L">Case Studies</tspan></text><g transform="translate(239.15 249.32) scale(.0527)" id="g2669" fill="#7fd3d1" stroke="#000"><path d="M-1217.2-842.12h-.335c-40.58 0-73.594 33.002-73.594 73.567 0 26.59 12.11 61.683 35.992 104.3 17.706 31.598 35.66 55.799 35.84 56.04a2.648 2.648 0 0 0 2.123 1.067l.072-.001a2.65 2.65 0 0 0 2.133-1.182c.178-.268 18.004-27.19 35.59-60.115 23.737-44.442 35.773-78.125 35.773-100.11 0-40.565-33.016-73.567-73.595-73.567z" id="path2665" stroke-width="15.699"/><circle cx="-1216.8" cy="-600.91" r="22.589" id="circle2667" opacity=".99" stroke-width="9.486" stroke-linecap="round" stroke-linejoin="bevel"/></g></g><g transform="translate(0 -164.71)" id="sh"><text x="114.884" y="245.441" style="line-height:125%;font-variant-ligatures:normal;font-variant-caps:normal;font-variant-numeric:normal;font-feature-settings:normal" id="text2674" font-size="10.583" font-family="Noto Mono" letter-spacing="0" word-spacing="0" stroke-width=".265"><tspan x="114.884" y="245.441" id="tspan2672" font-weight="700" font-size="5.644" font-family="Nimbus Mono L">Self Hosted</tspan></text><g transform="translate(186.27 271.12) scale(.0527)" id="g2680" fill="#7fd3d1" stroke="#000"><path d="M-1217.2-842.12h-.335c-40.58 0-73.594 33.002-73.594 73.567 0 26.59 12.11 61.683 35.992 104.3 17.706 31.598 35.66 55.799 35.84 56.04a2.648 2.648 0 0 0 2.123 1.067l.072-.001a2.65 2.65 0 0 0 2.133-1.182c.178-.268 18.004-27.19 35.59-60.115 23.737-44.442 35.773-78.125 35.773-100.11 0-40.565-33.016-73.567-73.595-73.567z" id="path2676" stroke-width="15.699"/><circle cx="-1216.8" cy="-600.91" r="22.589" id="circle2678" opacity=".99" stroke-width="9.486" stroke-linecap="round" stroke-linejoin="bevel"/></g></g><g id="pricing" transform="translate(20.146 -133.25)"><text x="29.154" y="192.853" style="line-height:125%;font-variant-ligatures:normal;font-variant-caps:normal;font-variant-numeric:normal;font-feature-settings:normal" id="text2685" font-size="10.583" font-family="Noto Mono" letter-spacing="0" word-spacing="0" stroke-width=".265"><tspan x="29.154" y="192.853" id="tspan2683" font-weight="700" font-size="5.644" font-family="Nimbus Mono L">Pricing</tspan></text><g transform="translate(118.54 218.26) scale(.0527)" id="g2691" fill="#7fd3d1" stroke="#000"><path d="M-1217.2-842.12h-.335c-40.58 0-73.594 33.002-73.594 73.567 0 26.59 12.11 61.683 35.992 104.3 17.706 31.598 35.66 55.799 35.84 56.04a2.648 2.648 0 0 0 2.123 1.067l.072-.001a2.65 2.65 0 0 0 2.133-1.182c.178-.268 18.004-27.19 35.59-60.115 23.737-44.442 35.773-78.125 35.773-100.11 0-40.565-33.016-73.567-73.595-73.567z" id="path2687" stroke-width="15.699"/><circle cx="-1216.8" cy="-600.91" r="22.589" id="circle2689" opacity=".99" stroke-width="9.486" stroke-linecap="round" stroke-linejoin="bevel"/></g></g><g id="industry" transform="translate(.915 -131.308)"><text x="50.617" y="237.715" style="line-height:125%;font-variant-ligatures:normal;font-variant-caps:normal;font-variant-numeric:normal;font-feature-settings:normal" id="text2696" font-size="10.583" font-family="Noto Mono" letter-spacing="0" word-spacing="0" stroke-width=".265"><tspan x="50.617" y="237.715" id="tspan2694" font-weight="700" font-size="5.644" font-family="Nimbus Mono L">Industries</tspan></text><g transform="translate(109.19 266.35) scale(.0527)" id="g2702" fill="#7fd3d1" stroke="#000"><path d="M-1217.2-842.12h-.335c-40.58 0-73.594 33.002-73.594 73.567 0 26.59 12.11 61.683 35.992 104.3 17.706 31.598 35.66 55.799 35.84 56.04a2.648 2.648 0 0 0 2.123 1.067l.072-.001a2.65 2.65 0 0 0 2.133-1.182c.178-.268 18.004-27.19 35.59-60.115 23.737-44.442 35.773-78.125 35.773-100.11 0-40.565-33.016-73.567-73.595-73.567z" id="path2698" stroke-width="15.699"/><circle cx="-1216.8" cy="-600.91" r="22.589" id="circle2700" opacity=".99" stroke-width="9.486" stroke-linecap="round" stroke-linejoin="bevel"/></g></g><g id="analytic" transform="translate(-3.463 -140.733)"><text x="107.667" y="269.18" style="line-height:125%;font-variant-ligatures:normal;font-variant-caps:normal;font-variant-numeric:normal;font-feature-settings:normal" id="text2707" font-size="10.583" font-family="Noto Mono" letter-spacing="0" word-spacing="0" stroke-width=".265"><tspan x="107.667" y="269.18" id="tspan2705" font-weight="700" font-size="5.644" font-family="Nimbus Mono L">Analytics</tspan></text><g transform="translate(179.53 295.16) scale(.0527)" id="g2713" fill="#7fd3d1" stroke="#000"><path d="M-1217.2-842.12h-.335c-40.58 0-73.594 33.002-73.594 73.567 0 26.59 12.11 61.683 35.992 104.3 17.706 31.598 35.66 55.799 35.84 56.04a2.648 2.648 0 0 0 2.123 1.067l.072-.001a2.65 2.65 0 0 0 2.133-1.182c.178-.268 18.004-27.19 35.59-60.115 23.737-44.442 35.773-78.125 35.773-100.11 0-40.565-33.016-73.567-73.595-73.567z" id="path2709" stroke-width="15.699"/><circle cx="-1216.8" cy="-600.91" r="22.589" id="circle2711" opacity=".99" stroke-width="9.486" stroke-linecap="round" stroke-linejoin="bevel"/></g></g></g></svg>