<svg xmlns="http://www.w3.org/2000/svg" width="1020" height="500" viewBox="0 0 269.88 132.29" id="svg2717"><style id="style5916">.lines{stroke:#a48585;stroke-width:28.45800018;fill:none}</style><g id="layer2"><g id="g2586" transform="matrix(1.2981 0 0 1.3972 -143.45 5.159)" opacity=".508" fill="none" stroke="#000"><g id="g1788" transform="translate(-41.321 -26.435)" stroke-width=".132"><path id="path1770" d="M203.74 22.538l-36.018 116.08"/><path id="path1772" d="M218.17 22.538l-28.585 116.08"/><path id="path1774" d="M232.59 22.538l-21.152 116.08"/><path id="path1776" d="M247.02 22.538l-13.719 116.08"/><path id="path1778" d="M261.44 22.538l-6.286 116.08"/><path id="path1780" d="M275.87 22.538l1.147 116.08"/><path id="path1782" d="M290.29 22.538l8.58 116.08"/><path id="path1784" d="M304.72 22.538l16.014 116.08"/><path id="path1786" d="M319.15 22.538l23.447 116.08"/></g><g id="g1820" transform="translate(-41.321 -26.435)" stroke-width=".132"><path id="path1790" d="M187.4 138.61l-35.568-15.93"/><path id="path1792" d="M231.11 138.61l-73.581-31.167"/><path id="path1794" d="M274.83 138.61L162.72 93.57"/><path id="path1796" d="M318.55 138.61L167.48 80.884"/><path id="path1798" d="M362.26 138.61L171.83 69.239"/><path id="path1800" d="M360.21 122.69L175.85 58.523"/><path id="path1802" d="M356.16 107.45l-176.6-58.842"/><path id="path1804" d="M352.47 93.574L183 39.419"/><path id="path1806" d="M349.09 80.888l-162.9-50.009"/><path id="path1808" d="M346 69.244L189.18 22.922"/><path id="path1810" d="M343.14 58.518l-126.42-35.98"/><path id="path1812" d="M340.51 48.606l-94.93-26.068"/><path id="path1814" d="M338.06 39.419l-63.635-16.881"/><path id="path1816" d="M335.79 30.879l-32.512-8.341"/><path id="path1818" d="M333.67 22.922l-1.545-.384"/></g><g id="g1852" transform="translate(-41.321 -26.435)" stroke-width=".132"><path id="path1822" d="M322.92 138.61l37.293-15.93"/><path id="path1824" d="M279.2 138.61l76.957-31.167"/><path id="path1826" d="M235.49 138.61l116.98-45.04"/><path id="path1828" d="M191.77 138.61L349.1 80.884"/><path id="path1830" d="M148.05 138.61l197.94-69.371"/><path id="path1832" d="M151.83 122.69l191.31-64.167"/><path id="path1834" d="M157.53 107.45L340.5 48.608"/><path id="path1836" d="M162.73 93.574l175.34-54.155"/><path id="path1838" d="M167.47 80.888l168.32-50.009"/><path id="path1840" d="M171.83 69.244l161.84-46.322"/><path id="path1842" d="M175.85 58.518l130.31-35.98"/><path id="path1844" d="M179.56 48.606l97.753-26.068"/><path id="path1846" d="M183 39.419l65.463-16.881"/><path id="path1848" d="M186.19 30.879l33.416-8.341"/><path id="path1850" d="M189.17 22.922l1.586-.384"/></g><g id="g1874" transform="translate(-41.321 -26.435)" stroke-width=".053"><path id="path1854" d="M196.53 22.538l-39.734 116.08"/><path id="path1856" d="M210.95 22.538l-32.301 116.08"/><path id="path1858" d="M225.38 22.538l-24.868 116.08"/><path id="path1860" d="M239.81 22.538l-17.435 116.08"/><path id="path1862" d="M254.23 22.538l-10.002 116.08"/><path id="path1864" d="M268.66 22.538l-2.57 116.08"/><path id="path1866" d="M283.08 22.538l4.864 116.08"/><path id="path1868" d="M297.51 22.538l12.297 116.08"/><path id="path1870" d="M311.93 22.538l19.73 116.08"/><path id="path1872" d="M326.36 22.538l27.163 116.08"/></g><g id="g2036" transform="translate(-41.321 -26.435)" stroke-width=".026"><path id="path1876" d="M190.76 22.538l-42.708 116.08"/><path id="path1878" d="M192.2 22.538l-41.964 116.08"/><path id="path1880" d="M193.64 22.538l-41.221 116.08"/><path id="path1882" d="M195.09 22.538l-40.478 116.08"/><path id="path1884" d="M197.97 22.538l-38.991 116.08"/><path id="path1886" d="M199.41 22.538l-38.248 116.08"/><path id="path1888" d="M200.86 22.538l-37.504 116.08"/><path id="path1890" d="M202.3 22.538l-36.761 116.08"/><path id="path1892" d="M205.18 22.538l-35.275 116.08"/><path id="path1894" d="M206.63 22.538l-34.531 116.08"/><path id="path1896" d="M208.07 22.538l-33.788 116.08"/><path id="path1898" d="M209.51 22.538l-33.045 116.08"/><path id="path1900" d="M212.4 22.538l-31.558 116.08"/><path id="path1902" d="M213.84 22.538l-30.815 116.08"/><path id="path1904" d="M215.28 22.538l-30.071 116.08"/><path id="path1906" d="M216.72 22.538l-29.328 116.08"/><path id="path1908" d="M219.61 22.538l-27.841 116.08"/><path id="path1910" d="M221.05 22.538l-27.098 116.08"/><path id="path1912" d="M222.49 22.538l-26.355 116.08"/><path id="path1914" d="M223.94 22.538l-25.612 116.08"/><path id="path1916" d="M226.82 22.538l-24.125 116.08"/><path id="path1918" d="M228.26 22.538l-23.382 116.08"/><path id="path1920" d="M229.71 22.538l-22.638 116.08"/><path id="path1922" d="M231.15 22.538l-21.895 116.08"/><path id="path1924" d="M234.04 22.538l-20.408 116.08"/><path id="path1926" d="M235.48 22.538l-19.665 116.08"/><path id="path1928" d="M236.92 22.538l-18.922 116.08"/><path id="path1930" d="M238.36 22.538l-18.178 116.08"/><path id="path1932" d="M241.25 22.538l-16.692 116.08"/><path id="path1934" d="M242.69 22.538l-15.949 116.08"/><path id="path1936" d="M244.13 22.538l-15.205 116.08"/><path id="path1938" d="M245.58 22.538l-14.462 116.08"/><path id="path1940" d="M248.46 22.538l-12.975 116.08"/><path id="path1942" d="M249.9 22.538l-12.232 116.08"/><path id="path1944" d="M251.35 22.538l-11.489 116.08"/><path id="path1946" d="M252.79 22.538l-10.745 116.08"/><path id="path1948" d="M255.67 22.538l-9.259 116.08"/><path id="path1950" d="M257.12 22.538l-8.515 116.08"/><path id="path1952" d="M258.56 22.538l-7.772 116.08"/><path id="path1954" d="M260 22.538l-7.029 116.08"/><path id="path1956" d="M262.89 22.538l-5.542 116.08"/><path id="path1958" d="M264.33 22.538l-4.799 116.08"/><path id="path1960" d="M265.77 22.538l-4.056 116.08"/><path id="path1962" d="M267.21 22.538l-3.312 116.08"/><path id="path1964" d="M270.1 22.538l-1.826 116.08"/><path id="path1966" d="M271.54 22.538l-1.083 116.08"/><path id="path1968" d="M272.98 22.538l-.34 116.08"/><path id="path1970" d="M274.43 22.538l.404 116.08"/><path id="path1972" d="M277.31 22.538l1.89 116.08"/><path id="path1974" d="M278.75 22.538l2.634 116.08"/><path id="path1976" d="M280.2 22.538l3.377 116.08"/><path id="path1978" d="M281.64 22.538l4.12 116.08"/><path id="path1980" d="M284.52 22.538l5.607 116.08"/><path id="path1982" d="M285.97 22.538l6.35 116.08"/><path id="path1984" d="M287.41 22.538l7.094 116.08"/><path id="path1986" d="M288.85 22.538l7.837 116.08"/><path id="path1988" d="M291.74 22.538l9.324 116.08"/><path id="path1990" d="M293.18 22.538l10.067 116.08"/><path id="path1992" d="M294.62 22.538l10.81 116.08"/><path id="path1994" d="M296.06 22.538l11.554 116.08"/><path id="path1996" d="M298.95 22.538l13.04 116.08"/><path id="path1998" d="M300.39 22.538l13.784 116.08"/><path id="path2000" d="M301.83 22.538l14.527 116.08"/><path id="path2002" d="M303.28 22.538l15.27 116.08"/><path id="path2004" d="M306.16 22.538l16.757 116.08"/><path id="path2006" d="M307.6 22.538l17.5 116.08"/><path id="path2008" d="M309.05 22.538l18.243 116.08"/><path id="path2010" d="M310.49 22.538l18.987 116.08"/><path id="path2012" d="M313.37 22.538l20.473 116.08"/><path id="path2014" d="M314.82 22.538l21.217 116.08"/><path id="path2016" d="M316.26 22.538l21.96 116.08"/><path id="path2018" d="M317.7 22.538l22.703 116.08"/><path id="path2020" d="M320.59 22.538l24.19 116.08"/><path id="path2022" d="M322.03 22.538l24.933 116.08"/><path id="path2024" d="M323.47 22.538l25.676 116.08"/><path id="path2026" d="M324.92 22.538l26.42 116.08"/><path id="path2028" d="M327.8 22.538l27.906 116.08"/><path id="path2030" d="M329.24 22.538l28.65 116.08"/><path id="path2032" d="M330.69 22.538l29.393 116.08"/><path id="path2034" d="M332.13 22.538l30.136 116.08"/></g><g id="g2068" transform="translate(-41.321 -26.435)" stroke-width=".053"><path id="path2038" d="M165.54 138.61l-16.777-7.736"/><path id="path2040" d="M209.25 138.61l-54.506-23.731"/><path id="path2042" d="M252.97 138.61l-92.784-38.262"/><path id="path2044" d="M296.69 138.61L165.15 87.088"/><path id="path2046" d="M340.41 138.61L169.7 74.939"/><path id="path2048" d="M362.39 130.88L173.88 63.774"/><path id="path2050" d="M358.14 114.88l-180.4-61.418"/><path id="path2052" d="M354.27 100.35L181.31 43.924"/><path id="path2054" d="M350.74 87.092l-166.12-52.02"/><path id="path2056" d="M347.51 74.944l-159.8-48.112"/><path id="path2058" d="M344.54 63.773L202.3 22.538"/><path id="path2060" d="M341.8 53.466L231.15 22.538"/><path id="path2062" d="M339.26 43.927L260 22.538"/><path id="path2064" d="M336.9 35.072l-48.053-12.534"/><path id="path2066" d="M334.71 26.832l-17.01-4.294"/></g><g id="g2310" transform="translate(-41.321 -26.435)" stroke-width=".026"><path id="path2070" d="M148.05 138.61l-1.857-.877"/><path id="path2072" d="M152.42 138.61l-5.577-2.618"/><path id="path2074" d="M156.79 138.61l-9.304-4.341"/><path id="path2076" d="M161.17 138.61l-13.037-6.047"/><path id="path2078" d="M169.91 138.61l-20.523-9.407"/><path id="path2080" d="M174.28 138.61l-24.275-11.062"/><path id="path2082" d="M178.65 138.61l-28.033-12.701"/><path id="path2084" d="M183.02 138.61l-31.798-14.323"/><path id="path2086" d="M191.77 138.61l-39.344-17.52"/><path id="path2088" d="M196.14 138.61l-43.126-19.096"/><path id="path2090" d="M200.51 138.61l-46.914-20.656"/><path id="path2092" d="M204.88 138.61l-50.708-22.201"/><path id="path2094" d="M213.63 138.61l-58.311-25.246"/><path id="path2096" d="M218 138.61l-62.121-26.747"/><path id="path2098" d="M222.37 138.61l-65.936-28.234"/><path id="path2100" d="M226.74 138.61l-69.756-29.707"/><path id="path2102" d="M235.49 138.61l-77.412-32.612"/><path id="path2104" d="M239.86 138.61l-81.248-34.044"/><path id="path2106" d="M244.23 138.61l-85.088-35.463"/><path id="path2108" d="M248.6 138.61l-88.934-36.869"/><path id="path2110" d="M257.34 138.61l-96.639-39.643"/><path id="path2112" d="M261.72 138.61L161.22 97.6"/><path id="path2114" d="M266.09 138.61L161.73 96.244"/><path id="path2116" d="M270.46 138.61L162.23 94.901"/><path id="path2118" d="M279.2 138.61L163.22 92.25"/><path id="path2120" d="M283.57 138.61L163.71 90.942"/><path id="path2122" d="M287.95 138.61L164.2 89.646"/><path id="path2124" d="M292.32 138.61L164.68 88.361"/><path id="path2126" d="M301.06 138.61L165.62 85.825"/><path id="path2128" d="M305.43 138.61L166.09 84.574"/><path id="path2130" d="M309.8 138.61L166.55 83.333"/><path id="path2132" d="M314.18 138.61L167.02 82.103"/><path id="path2134" d="M322.92 138.61L167.93 79.674"/><path id="path2136" d="M327.29 138.61L168.37 78.476"/><path id="path2138" d="M331.66 138.61L168.82 77.287"/><path id="path2140" d="M336.03 138.61L169.26 76.108"/><path id="path2142" d="M344.78 138.61L170.14 73.78"/><path id="path2144" d="M349.15 138.61L170.56 72.631"/><path id="path2146" d="M353.52 138.61L170.99 71.491"/><path id="path2148" d="M357.89 138.61L171.41 70.361"/><path id="path2150" d="M364.22 137.74L172.25 68.134"/><path id="path2152" d="M363.75 136L172.66 67.032"/><path id="path2154" d="M363.3 134.27L173.08 65.931"/><path id="path2156" d="M362.84 132.57L173.48 64.852"/><path id="path2158" d="M361.95 129.21L174.28 62.708"/><path id="path2160" d="M361.51 127.55L174.68 61.644"/><path id="path2162" d="M361.07 125.91l-186-65.319"/><path id="path2164" d="M360.64 124.29L175.46 59.551"/><path id="path2166" d="M359.79 121.09L176.23 57.487"/><path id="path2168" d="M359.37 119.52L176.61 56.475"/><path id="path2170" d="M358.96 117.96L177 55.464"/><path id="path2172" d="M358.54 116.41L177.36 54.457"/><path id="path2174" d="M357.73 113.37L178.1 52.481"/><path id="path2176" d="M357.33 111.87L178.47 51.503"/><path id="path2178" d="M356.94 110.38l-178.1-59.852"/><path id="path2180" d="M356.55 108.91L179.2 49.566"/><path id="path2182" d="M355.77 106L179.91 47.654"/><path id="path2184" d="M355.39 104.57L180.26 46.713"/><path id="path2186" d="M355.02 103.15l-174.4-57.374"/><path id="path2188" d="M354.64 101.75L180.96 44.853"/><path id="path2190" d="M353.9 98.972l-172.25-55.96"/><path id="path2192" d="M353.54 97.604L181.99 42.103"/><path id="path2194" d="M353.18 96.249L182.33 41.202"/><path id="path2196" d="M352.82 94.905L182.66 40.307"/><path id="path2198" d="M352.12 92.255L183.33 38.537"/><path id="path2200" d="M351.77 90.947L183.66 37.661"/><path id="path2202" d="M351.42 89.651L183.98 36.792"/><path id="path2204" d="M351.08 88.366L184.3 35.929"/><path id="path2206" d="M350.41 85.83L184.94 34.222"/><path id="path2208" d="M350.07 84.578L185.25 33.377"/><path id="path2210" d="M349.74 83.338L185.57 32.539"/><path id="path2212" d="M349.42 82.108L185.89 31.706"/><path id="path2214" d="M348.77 79.679L186.5 30.058"/><path id="path2216" d="M348.45 78.48L186.8 29.243"/><path id="path2218" d="M348.14 77.292L187.11 28.434"/><path id="path2220" d="M347.82 76.113L187.41 27.63"/><path id="path2222" d="M347.2 73.785L188 26.039"/><path id="path2224" d="M346.9 72.636L188.3 25.252"/><path id="path2226" d="M346.59 71.496l-158-47.026"/><path id="path2228" d="M346.29 70.365L188.88 23.693"/><path id="path2230" d="M345.7 68.132L190.76 22.538"/><path id="path2232" d="M345.41 67.029L193.65 22.538"/><path id="path2234" d="M345.12 65.935L196.53 22.538"/><path id="path2236" d="M344.83 64.85L199.42 22.538"/><path id="path2238" d="M344.26 62.705L205.19 22.538"/><path id="path2240" d="M343.97 61.646l-135.9-39.108"/><path id="path2242" d="M343.69 60.595L210.95 22.538"/><path id="path2244" d="M343.42 59.552L213.84 22.538"/><path id="path2246" d="M342.87 57.492L219.61 22.538"/><path id="path2248" d="M342.6 56.474L222.5 22.538"/><path id="path2250" d="M342.33 55.463L225.38 22.538"/><path id="path2252" d="M342.06 54.461l-113.8-31.923"/><path id="path2254" d="M341.54 52.479l-107.5-29.941"/><path id="path2256" d="M341.28 51.5L236.93 22.538"/><path id="path2258" d="M341.02 50.528l-101.21-27.99"/><path id="path2260" d="M340.76 49.563l-98.07-27.025"/><path id="path2262" d="M340.25 47.656l-91.792-25.118"/><path id="path2264" d="M340 46.713l-88.656-24.175"/><path id="path2266" d="M339.75 45.778l-85.522-23.239"/><path id="path2268" d="M339.51 44.849l-82.39-22.311"/><path id="path2270" d="M339.02 43.012l-76.131-20.474"/><path id="path2272" d="M338.78 42.104l-73.004-19.566"/><path id="path2274" d="M338.54 41.202l-69.88-18.664"/><path id="path2276" d="M338.3 40.307l-66.756-17.769"/><path id="path2278" d="M337.83 38.537l-60.515-15.999"/><path id="path2280" d="M337.59 37.661l-57.397-15.123"/><path id="path2282" d="M337.36 36.792l-54.281-14.254"/><path id="path2284" d="M337.13 35.929l-51.166-13.391"/><path id="path2286" d="M336.68 34.222l-44.942-11.684"/><path id="path2288" d="M336.45 33.377l-41.832-10.839"/><path id="path2290" d="M336.23 32.539l-38.724-10.001"/><path id="path2292" d="M336.01 31.706l-35.617-9.168"/><path id="path2294" d="M335.57 30.058l-29.409-7.52"/><path id="path2296" d="M335.35 29.243l-26.307-6.705"/><path id="path2298" d="M335.14 28.434l-23.207-5.896"/><path id="path2300" d="M334.93 27.63l-20.108-5.092"/><path id="path2302" d="M334.5 26.039l-13.914-3.5"/><path id="path2304" d="M334.29 25.252l-10.82-2.713"/><path id="path2306" d="M334.08 24.47l-7.727-1.931"/><path id="path2308" d="M333.88 23.693l-4.635-1.155"/></g><g id="g2342" transform="translate(-41.321 -26.435)" stroke-width=".053"><path id="path2312" d="M344.78 138.61l17.615-7.736"/><path id="path2314" d="M301.06 138.61l57.077-23.731"/><path id="path2316" d="M257.34 138.61l96.928-38.262"/><path id="path2318" d="M213.63 138.61l137.12-51.522"/><path id="path2320" d="M169.91 138.61l177.6-63.671"/><path id="path2322" d="M148.76 130.88l195.78-67.106"/><path id="path2324" d="M154.75 114.88L341.8 53.462"/><path id="path2326" d="M160.19 100.35l179.07-56.426"/><path id="path2328" d="M165.15 87.092l171.75-52.02"/><path id="path2330" d="M169.7 74.944l165.01-48.112"/><path id="path2332" d="M173.88 63.773l146.71-41.235"/><path id="path2334" d="M177.74 53.466l114-30.928"/><path id="path2336" d="M181.31 43.927l81.576-21.389"/><path id="path2338" d="M184.62 35.072l49.411-12.534"/><path id="path2340" d="M187.71 26.832l17.475-4.293"/></g><path id="path2344" d="M320.939 112.175l1.952-.877" stroke-width=".026"/><path id="path2346" d="M316.569 112.175l5.861-2.618" stroke-width=".026"/><path id="path2348" d="M312.199 112.175l9.774-4.341" stroke-width=".026"/><path id="path2350" d="M307.829 112.175l13.692-6.047" stroke-width=".026"/><path id="path2352" d="M299.089 112.175l21.542-9.407" stroke-width=".026"/><path id="path2354" d="M294.709 112.175l25.473-11.062" stroke-width=".026"/><path id="path2356" d="M290.339 112.175l29.409-12.701" stroke-width=".026"/><path id="path2358" d="M285.969 112.175l33.349-14.323" stroke-width=".026"/><path id="path2360" d="M277.229 112.175l41.242-17.52" stroke-width=".026"/><path id="path2362" d="M272.859 112.175l45.195-19.096" stroke-width=".026"/><path id="path2364" d="M268.479 112.175l49.151-20.656" stroke-width=".026"/><path id="path2366" d="M264.109 112.175l53.112-22.201" stroke-width=".026"/><path id="path2368" d="M255.369 112.175l61.045-25.246" stroke-width=".026"/><path id="path2370" d="M250.999 112.175l65.017-26.747" stroke-width=".026"/><path id="path2372" d="M246.629 112.175l68.994-28.234" stroke-width=".026"/><path id="path2374" d="M242.249 112.175l72.973-29.707" stroke-width=".026"/><path id="path2376" d="M233.509 112.175l80.944-32.612" stroke-width=".026"/><path id="path2378" d="M229.139 112.175l84.935-34.044" stroke-width=".026"/><path id="path2380" d="M224.769 112.175l88.929-35.463" stroke-width=".026"/><path id="path2382" d="M220.399 112.175l92.927-36.869" stroke-width=".026"/><path id="path2384" d="M211.649 112.175l100.93-39.643" stroke-width=".026"/><path id="path2386" d="M207.279 112.175l104.94-41.01" stroke-width=".026"/><path id="path2388" d="M202.909 112.175l108.95-42.366" stroke-width=".026"/><path id="path2390" d="M198.539 112.175l112.97-43.709" stroke-width=".026"/><path id="path2392" d="M189.789 112.175l121-46.36" stroke-width=".026"/><path id="path2394" d="M185.419 112.175l125.03-47.668" stroke-width=".026"/><path id="path2396" d="M181.049 112.175l129.05-48.964" stroke-width=".026"/><path id="path2398" d="M176.679 112.175l133.08-50.249" stroke-width=".026"/><path id="path2400" d="M167.929 112.175l141.15-52.785" stroke-width=".026"/><path id="path2402" d="M163.559 112.175l145.19-54.036" stroke-width=".026"/><path id="path2404" d="M159.189 112.175l149.23-55.277" stroke-width=".026"/><path id="path2406" d="M154.819 112.175l153.28-56.507" stroke-width=".026"/><path id="path2408" d="M146.079 112.175l161.38-58.936" stroke-width=".026"/><path id="path2410" d="M141.699 112.175l165.43-60.134" stroke-width=".026"/><path id="path2412" d="M137.329 112.175l169.48-61.323" stroke-width=".026"/><path id="path2414" d="M132.959 112.175l173.54-62.502" stroke-width=".026"/><path id="path2416" d="M124.219 112.175l181.67-64.83" stroke-width=".026"/><path id="path2418" d="M119.849 112.175l185.73-65.979" stroke-width=".026"/><path id="path2420" d="M115.469 112.175l189.8-67.119" stroke-width=".026"/><path id="path2422" d="M111.099 112.175l193.87-68.249" stroke-width=".026"/><path id="path2424" d="M104.869 111.305l199.51-69.606" stroke-width=".026"/><path id="path2426" d="M105.529 109.565l198.56-68.968" stroke-width=".026"/><path id="path2428" d="M106.169 107.835l197.62-68.339" stroke-width=".026"/><path id="path2430" d="M106.809 106.135l196.7-67.718" stroke-width=".026"/><path id="path2432" d="M108.069 102.775l194.87-66.502" stroke-width=".026"/><path id="path2434" d="M108.689 101.115l193.97-65.906" stroke-width=".026"/><path id="path2436" d="M109.299 99.475l193.08-65.319" stroke-width=".026"/><path id="path2438" d="M109.909 97.855l192.19-64.739" stroke-width=".026"/><path id="path2440" d="M111.099 94.655l190.45-63.603" stroke-width=".026"/><path id="path2442" d="M111.689 93.085l189.58-63.045" stroke-width=".026"/><path id="path2444" d="M112.279 91.525l188.73-62.496" stroke-width=".026"/><path id="path2446" d="M112.859 89.975l187.89-61.953" stroke-width=".026"/><path id="path2448" d="M113.999 86.935l186.22-60.889" stroke-width=".026"/><path id="path2450" d="M114.559 85.435l185.4-60.367" stroke-width=".026"/><path id="path2452" d="M115.109 83.945l184.58-59.852" stroke-width=".026"/><path id="path2454" d="M115.669 82.475l183.77-59.344" stroke-width=".026"/><path id="path2456" d="M116.749 79.565l182.18-58.346" stroke-width=".026"/><path id="path2458" d="M117.289 78.135l181.39-57.857" stroke-width=".026"/><path id="path2460" d="M117.819 76.715l180.61-57.374" stroke-width=".026"/><path id="path2462" d="M118.349 75.315l179.84-56.897" stroke-width=".026"/><path id="path2464" d="M119.379 72.537l178.31-55.96" stroke-width=".026"/><path id="path2466" d="M119.899 71.169l177.56-55.501" stroke-width=".026"/><path id="path2468" d="M120.399 69.814l176.81-55.047" stroke-width=".026"/><path id="path2470" d="M120.909 68.47l176.07-54.598" stroke-width=".026"/><path id="path2472" d="M121.899 65.82l174.61-53.718" stroke-width=".026"/><path id="path2474" d="M122.389 64.512l173.88-53.286" stroke-width=".026"/><path id="path2476" d="M122.869 63.216l173.17-52.859" stroke-width=".026"/><path id="path2478" d="M123.349 61.931l172.46-52.437" stroke-width=".026"/><path id="path2480" d="M124.299 59.395l171.05-51.608" stroke-width=".026"/><path id="path2482" d="M124.769 58.143l170.36-51.201" stroke-width=".026"/><path id="path2484" d="M125.239 56.903l169.67-50.799" stroke-width=".026"/><path id="path2486" d="M125.699 55.673l168.99-50.402" stroke-width=".026"/><path id="path2488" d="M126.609 53.244l167.64-49.621" stroke-width=".026"/><path id="path2490" d="M127.059 52.045l166.98-49.237" stroke-width=".026"/><path id="path2492" d="M127.499 50.857l166.32-48.858" stroke-width=".026"/><path id="path2494" d="M127.939 49.678l165.66-48.483" stroke-width=".026"/><path id="path2496" d="M128.809 47.35L293.179-.396" stroke-width=".026"/><path id="path2498" d="M129.239 46.201l163.73-47.384" stroke-width=".026"/><path id="path2500" d="M129.669 45.061l163.09-47.026" stroke-width=".026"/><path id="path2502" d="M130.089 43.93l162.46-46.672" stroke-width=".026"/><path id="path2504" d="M130.929 41.697l159.88-45.594" stroke-width=".026"/><path id="path2506" d="M131.339 40.594l156.58-44.491" stroke-width=".026"/><path id="path2508" d="M131.749 39.5l153.29-43.397" stroke-width=".026"/><path id="path2510" d="M132.159 38.415l149.99-42.312" stroke-width=".026"/><path id="path2512" d="M132.959 36.27l143.42-40.167" stroke-width=".026"/><path id="path2514" d="M133.359 35.211l140.14-39.108" stroke-width=".026"/><path id="path2516" d="M133.749 34.16l136.86-38.057" stroke-width=".026"/><path id="path2518" d="M134.139 33.117l133.59-37.014" stroke-width=".026"/><path id="path2520" d="M134.909 31.057l127.05-34.954" stroke-width=".026"/><path id="path2522" d="M135.289 30.039l123.78-33.936" stroke-width=".026"/><path id="path2524" d="M135.669 29.028l120.52-32.925" stroke-width=".026"/><path id="path2526" d="M136.049 28.026l117.26-31.923" stroke-width=".026"/><path id="path2528" d="M136.789 26.044l110.74-29.941" stroke-width=".026"/><path id="path2530" d="M137.159 25.065l107.49-28.962" stroke-width=".026"/><path id="path2532" d="M137.519 24.093l104.24-27.99" stroke-width=".026"/><path id="path2534" d="M137.879 23.128l101-27.025" stroke-width=".026"/><path id="path2536" d="M138.589 21.221l94.512-25.118" stroke-width=".026"/><path id="path2538" d="M138.949 20.278l91.274-24.175" stroke-width=".026"/><path id="path2540" d="M139.299 19.343l88.039-23.239" stroke-width=".026"/><path id="path2542" d="M139.639 18.414l84.806-22.311" stroke-width=".026"/><path id="path2544" d="M140.329 16.577l78.349-20.474" stroke-width=".026"/><path id="path2546" d="M140.669 15.669l75.123-19.566" stroke-width=".026"/><path id="path2548" d="M141.009 14.767L212.91-3.897" stroke-width=".026"/><path id="path2550" d="M141.339 13.872L210.02-3.897" stroke-width=".026"/><path id="path2552" d="M142.009 12.102l62.248-15.999" stroke-width=".026"/><path id="path2554" d="M142.339 11.226l59.035-15.123" stroke-width=".026"/><path id="path2556" d="M142.659 10.357l55.825-14.254" stroke-width=".026"/><path id="path2558" d="M142.979 9.494l52.617-13.391" stroke-width=".026"/><path id="path2560" d="M143.619 7.787l46.207-11.684" stroke-width=".026"/><path id="path2562" d="M143.939 6.942l43.006-10.839" stroke-width=".026"/><path id="path2564" d="M144.249 6.104l39.807-10.001" stroke-width=".026"/><path id="path2566" d="M144.559 5.271l36.61-9.168" stroke-width=".026"/><path id="path2568" d="M145.179 3.623l30.223-7.52" stroke-width=".026"/><path id="path2570" d="M145.489 2.808l27.033-6.705" stroke-width=".026"/><path id="path2572" d="M145.789 1.999l23.845-5.896" stroke-width=".026"/><path id="path2574" d="M146.089 1.195l20.659-5.092" stroke-width=".026"/><path id="path2576" d="M146.689-.396l14.293-3.5" stroke-width=".026"/><path id="path2578" d="M146.979-1.183l11.114-2.713" stroke-width=".026"/><path id="path2580" d="M147.269-1.965l7.936-1.931" stroke-width=".026"/><path id="path2582" d="M147.559-2.742l4.76-1.155" stroke-width=".026"/><path id="path2584" d="M103.72 112.64L147.641-4.09h144.99l31.279 116.73H103.72" stroke-width=".265"/></g></g><g id="layer3"><path class="lines" d="M225.267 96.27l16.077-21.974c2.005-2.94 2.4-4.87-.673-10.221l-17.609-30.756" id="demo-signup" fill="none" stroke="#a48585" stroke-width="1.5"/><path class="lines" d="M174.855 52.237l6.398-.049c3.645-.112 4.386 4.408 5.482 8.374l5.446 19.52c1.088 4.11 3.094 5.57 6.195 7.517l26.892 8.671" id="cs-demo" fill="none" stroke="#a48585" stroke-width="1.5"/><path class="lines" d="M170.236 24.973l7.624-.033c3.056-.079 4.038 1.026 4.865 3.695l14.5 48.44c1.175 3.984 1.521 4.362 4.59 6.228l23.453 12.969" id="wp-demo" fill="none" stroke="#a48585" stroke-width="1.5"/><path class="lines" d="M115.288 14.753l73.534-.304c3.65-.036 4.59-.124 7.89 2.11l26.35 16.758" id="product-signup" fill="none" stroke="#a48585" stroke-width="1.5"/><path class="lines" d="M223.063 33.317l-4.502 3.77c-2.425 2.218-4.007 1.98-6.538 1.966l-41.389-.024c-6.564.313-7.394 1.332-11.179 4.021l-37.2 31.403" id="sh-signup" fill="none" stroke="#a48585" stroke-width="1.5"/><path class="lines" d="M122.253 74.455l-19.873.088c-7.915.158-7.833-.513-11.587-4.51L74.107 52.54" id="pricing-sh" fill="none" stroke="#a48585" stroke-width="1.5"/><path class="lines" d="M115.288 14.753l-13.478 8.73c-3.346 1.884-3.662 4.302-4.37 6.448l-3.271 10.263c-1.503 3.624-5.064 5.396-9.165 7.357l-10.896 4.985" id="pricing-product" fill="none" stroke="#a48585" stroke-width="1.5"/><path class="lines" d="M170.236 24.973l-14.904.114c-4.123.031-5.877.62-5.441 4.782 1.66 22.1 7.693 30.844 10.41 71.426.756 10.828-9.813 5.445-14.136 6.545l-35.444 15.012" id="analytic-wp" fill="none" stroke="#a48585" stroke-width="1.5"/><path class="lines" d="M110.721 122.852l116.392-.11c9.517-.008 7.049-6.835 7.049-6.835L225.27 96.27" id="analytic-demo" fill="none" stroke="#a48585" stroke-width="1.5"/><path class="lines" d="M46.035 103.092l44.127-37.29c6.34-5.394 6.662-5.85 14.573-5.794l52.383.281c5.122-.103 5.474-.371 10.121-3.269l7.618-4.783" id="industry-cs" fill="none" stroke="#a48585" stroke-width="1.5"/><path class="lines" d="M46.035 103.092l-7.934 10.198c-8.17 8.512-6.752 10.075 1.007 9.652l52.015.095 19.6-.185" id="industry-analytic" fill="none" stroke="#a48585" stroke-width="1.5"/><path class="lines" d="M225.267 96.27l-157.184.796c-4.603-.03-4.693-2.953-3.892-5.3l10.975-39.227" id="pricing-demo" fill="none" stroke="#a48585" stroke-width="1.5"/><path class="lines" d="M75.167 52.539l34.099-.009c5.727-.301 7.013-.59 8.079-5.323l1.125-9.125c.356-3.691 2.23-4.58 6.872-4.796l97.723.033" id="pricing-singup" fill="none" stroke="#a48585" stroke-width="1.5"/><path class="lines" d="M75.167 52.539l-8.365.001c-5 .002-5.02.02-1.916-6.695l3.85-8.536c1.082-2.402.553-4.212-2.724-4.183l-1.293-.01c-3.326.08-4.966-.366-5.006-2.924l-.575-7.2" id="home-pricing" fill="none" stroke="#a48585" stroke-width="1.5"/><path class="lines" d="M59.138 22.991l28.043-.001c3.805 0 6.259-.279 7.522-4.23 1.187-3.71 2.295-4.084 7.77-4.084l12.817.08" id="home-product" fill="none" stroke="#a48585" stroke-width="1.5"/><path class="lines" d="M59.138 22.991L33.673 65.993c-5.005 8.736-4.894 8.667 3.468 8.664l6.576-.003c8.496-.003 8.394.043 4.874 7.871l-6.957 15.47c-1.88 4.18-.502 5.094 1.408 5.099l2.993-.002" id="home-industry" fill="none" stroke="#a48585" stroke-width="1.5"/></g><g id="layer1"><g transform="translate(46.832 -118.852)" id="home"><text id="text2608" style="line-height:125%;font-variant-ligatures:normal;font-variant-caps:normal;font-variant-numeric:normal;font-feature-settings:normal" y="137.088" x="17.654" font-size="10.583" font-family="Noto Mono" letter-spacing="0" word-spacing="0" stroke-width=".265"><tspan id="tspan2606" y="137.088" x="17.654" font-weight="700" font-size="5.644" font-family="Nimbus Mono L">Home</tspan></text></g><g transform="translate(16.323 -111.312)" id="product"><text id="text2619" style="line-height:125%;font-variant-ligatures:normal;font-variant-caps:normal;font-variant-numeric:normal;font-feature-settings:normal" y="121.471" x="103.696" font-size="10.583" font-family="Noto Mono" letter-spacing="0" word-spacing="0" stroke-width=".265"><tspan id="tspan2617" y="121.471" x="103.696" font-weight="700" font-size="5.644" font-family="Nimbus Mono L">Product</tspan></text></g><g transform="translate(-18.5 -120.621)" id="wp"><g id="g2636" transform="translate(252.47 177.21) scale(.0527)"><text id="text2630" style="line-height:125%;font-variant-ligatures:normal;font-variant-caps:normal;font-variant-numeric:normal;font-feature-settings:normal" y="142.169" x="142.466" transform="translate(-4789.9 -3362.1) scale(18.972)" font-size="10.583" font-family="Noto Mono" letter-spacing="0" word-spacing="0" stroke-width=".265"><tspan id="tspan2628" y="142.169" x="142.466" font-weight="700" font-size="5.644" font-family="Nimbus Mono L">White Papers</tspan></text></g></g><g transform="translate(2.15 104.63)" id="demo"><text id="text2652" style="line-height:125%;font-variant-ligatures:normal;font-variant-caps:normal;font-variant-numeric:normal;font-feature-settings:normal" y="-7.143" x="227.225" font-size="10.583" font-family="Noto Mono" letter-spacing="0" word-spacing="0" stroke-width=".265"><tspan id="tspan2650" y="-7.143" x="227.225" font-weight="700" font-size="5.644" font-family="Nimbus Mono L">Demo Request</tspan></text></g><g id="cs" transform="translate(0 -164.71)"><text id="text2663" style="line-height:125%;font-variant-ligatures:normal;font-variant-caps:normal;font-variant-numeric:normal;font-feature-settings:normal" y="224.323" x="173.187" font-size="10.583" font-family="Noto Mono" letter-spacing="0" word-spacing="0" stroke-width=".265"><tspan id="tspan2661" y="224.323" x="173.187" font-weight="700" font-size="5.644" font-family="Nimbus Mono L">Case Studies</tspan></text></g><g id="sh" transform="translate(0 -164.71)"><text id="text2674" style="line-height:125%;font-variant-ligatures:normal;font-variant-caps:normal;font-variant-numeric:normal;font-feature-settings:normal" y="245.441" x="114.884" font-size="10.583" font-family="Noto Mono" letter-spacing="0" word-spacing="0" stroke-width=".265"><tspan id="tspan2672" y="245.441" x="114.884" font-weight="700" font-size="5.644" font-family="Nimbus Mono L">Self Hosted</tspan></text></g><g transform="translate(20.146 -133.25)" id="pricing"><text id="text2685" style="line-height:125%;font-variant-ligatures:normal;font-variant-caps:normal;font-variant-numeric:normal;font-feature-settings:normal" y="192.853" x="29.154" font-size="10.583" font-family="Noto Mono" letter-spacing="0" word-spacing="0" stroke-width=".265"><tspan id="tspan2683" y="192.853" x="29.154" font-weight="700" font-size="5.644" font-family="Nimbus Mono L">Pricing</tspan></text></g><g transform="translate(.915 -131.308)" id="industry"><text id="text2696" style="line-height:125%;font-variant-ligatures:normal;font-variant-caps:normal;font-variant-numeric:normal;font-feature-settings:normal" y="237.715" x="50.617" font-size="10.583" font-family="Noto Mono" letter-spacing="0" word-spacing="0" stroke-width=".265"><tspan id="tspan2694" y="237.715" x="50.617" font-weight="700" font-size="5.644" font-family="Nimbus Mono L">Industries</tspan></text></g><g transform="translate(-3.463 -140.733)" id="analytic"><text id="text2707" style="line-height:125%;font-variant-ligatures:normal;font-variant-caps:normal;font-variant-numeric:normal;font-feature-settings:normal" y="269.18" x="107.667" font-size="10.583" font-family="Noto Mono" letter-spacing="0" word-spacing="0" stroke-width=".265"><tspan id="tspan2705" y="269.18" x="107.667" font-weight="700" font-size="5.644" font-family="Nimbus Mono L">Analytics</tspan></text></g><g id="g1425" transform="translate(3.205 48.235)" opacity=".7" stroke="#000"><path d="M111.134-46.345h-.014c-1.7 0-3.268 1.508-3.083 3.878.194 2.494 1.351 3.054 2.351 5.3.742 1.665.65 3.139.658 3.151.02.036.054.057.089.057h.003c.036-.002.069-.025.089-.063.007-.014-.104-1.42.633-3.156.994-2.342 2.026-2.828 2.335-5.285.3-2.382-1.362-3.882-3.061-3.882z" id="path2621-2" fill="#99983e" stroke-width="1.651"/><circle cx="111.157" cy="-33.631" r="1.191" id="circle2623-1" opacity=".99" stroke-width=".5" stroke-linecap="round" stroke-linejoin="bevel"/></g><g transform="translate(113.992 129.265)" id="g1431" opacity=".7" stroke="#000"><path id="path1427" d="M111.134-46.345h-.014c-1.7 0-3.268 1.508-3.083 3.878.194 2.494 1.351 3.054 2.351 5.3.742 1.665.65 3.139.658 3.151.02.036.054.057.089.057h.003c.036-.002.069-.025.089-.063.007-.014-.104-1.42.633-3.156.994-2.342 2.026-2.828 2.335-5.285.3-2.382-1.362-3.882-3.061-3.882z" fill="#99983e" stroke-width="1.651"/><circle id="circle1429" r="1.191" cy="-33.631" cx="111.157" opacity=".99" stroke-width=".5" stroke-linecap="round" stroke-linejoin="bevel"/></g><g id="g1437" transform="translate(-.136 156.244)" opacity=".7" stroke="#000"><path d="M111.134-46.345h-.014c-1.7 0-3.268 1.508-3.083 3.878.194 2.494 1.351 3.054 2.351 5.3.742 1.665.65 3.139.658 3.151.02.036.054.057.089.057h.003c.036-.002.069-.025.089-.063.007-.014-.104-1.42.633-3.156.994-2.342 2.026-2.828 2.335-5.285.3-2.382-1.362-3.882-3.061-3.882z" id="path1433" fill="#99983e" stroke-width="1.651"/><circle cx="111.157" cy="-33.631" r="1.191" id="circle1435" opacity=".99" stroke-width=".5" stroke-linecap="round" stroke-linejoin="bevel"/></g><g id="g1449" transform="translate(63.977 85.677)" opacity=".85" stroke="#000"><path d="M111.134-46.345h-.014c-1.7 0-3.268 1.508-3.083 3.878.194 2.494 1.351 3.054 2.351 5.3.742 1.665.65 3.139.658 3.151.02.036.054.057.089.057h.003c.036-.002.069-.025.089-.063.007-.014-.104-1.42.633-3.156.994-2.342 2.026-2.828 2.335-5.285.3-2.382-1.362-3.882-3.061-3.882z" id="path1445" fill="#99983e" stroke-width="1.651" opacity=".7"/><circle cx="111.157" cy="-33.631" r="1.191" id="circle1447" opacity=".7" stroke-width=".5" stroke-linecap="round" stroke-linejoin="bevel"/></g><g transform="translate(58.8 58.393)" id="g1455" opacity=".7" stroke="#000"><path id="path1451" d="M111.134-46.345h-.014c-1.7 0-3.268 1.508-3.083 3.878.194 2.494 1.351 3.054 2.351 5.3.742 1.665.65 3.139.658 3.151.02.036.054.057.089.057h.003c.036-.002.069-.025.089-.063.007-.014-.104-1.42.633-3.156.994-2.342 2.026-2.828 2.335-5.285.3-2.382-1.362-3.882-3.061-3.882z" fill="#99983e" stroke-width="1.651"/><circle id="circle1453" r="1.191" cy="-33.631" cx="111.157" opacity=".99" stroke-width=".5" stroke-linecap="round" stroke-linejoin="bevel"/></g><g id="g1461" transform="translate(11.308 107.75)" opacity=".7" stroke="#000"><path d="M111.134-46.345h-.014c-1.7 0-3.268 1.508-3.083 3.878.194 2.494 1.351 3.054 2.351 5.3.742 1.665.65 3.139.658 3.151.02.036.054.057.089.057h.003c.036-.002.069-.025.089-.063.007-.014-.104-1.42.633-3.156.994-2.342 2.026-2.828 2.335-5.285.3-2.382-1.362-3.882-3.061-3.882z" id="path1457" fill="#99983e" stroke-width="1.651"/><circle cx="111.157" cy="-33.631" r="1.191" id="circle1459" opacity=".99" stroke-width=".5" stroke-linecap="round" stroke-linejoin="bevel"/></g><g transform="translate(-65.53 136.809)" id="g1467" opacity=".7" stroke="#000"><path id="path1463" d="M111.134-46.345h-.014c-1.7 0-3.268 1.508-3.083 3.878.194 2.494 1.351 3.054 2.351 5.3.742 1.665.65 3.139.658 3.151.02.036.054.057.089.057h.003c.036-.002.069-.025.089-.063.007-.014-.104-1.42.633-3.156.994-2.342 2.026-2.828 2.335-5.285.3-2.382-1.362-3.882-3.061-3.882z" fill="#99983e" stroke-width="1.651"/><circle id="circle1465" r="1.191" cy="-33.631" cx="111.157" opacity=".99" stroke-width=".5" stroke-linecap="round" stroke-linejoin="bevel"/></g><g id="g1473" transform="translate(-36.332 85.816)" opacity=".7" stroke="#000"><path d="M111.134-46.345h-.014c-1.7 0-3.268 1.508-3.083 3.878.194 2.494 1.351 3.054 2.351 5.3.742 1.665.65 3.139.658 3.151.02.036.054.057.089.057h.003c.036-.002.069-.025.089-.063.007-.014-.104-1.42.633-3.156.994-2.342 2.026-2.828 2.335-5.285.3-2.382-1.362-3.882-3.061-3.882z" id="path1469" fill="#99983e" stroke-width="1.651"/><circle cx="111.157" cy="-33.631" r="1.191" id="circle1471" opacity=".99" stroke-width=".5" stroke-linecap="round" stroke-linejoin="bevel"/></g><g transform="translate(-51.824 56.22)" id="g1479" opacity=".7" stroke="#000"><path id="path1475" d="M111.134-46.345h-.014c-1.7 0-3.268 1.508-3.083 3.878.194 2.494 1.351 3.054 2.351 5.3.742 1.665.65 3.139.658 3.151.02.036.054.057.089.057h.003c.036-.002.069-.025.089-.063.007-.014-.104-1.42.633-3.156.994-2.342 2.026-2.828 2.335-5.285.3-2.382-1.362-3.882-3.061-3.882z" fill="#99983e" stroke-width="1.651"/><circle id="circle1477" r="1.191" cy="-33.631" cx="111.157" opacity=".99" stroke-width=".5" stroke-linecap="round" stroke-linejoin="bevel"/></g><g id="g2469"><g id="signup" transform="translate(-40.572 -125.98)"><text x="268.239" y="155.258" style="line-height:125%;font-variant-ligatures:normal;font-variant-caps:normal;font-variant-numeric:normal;font-feature-settings:normal" id="text2641" font-size="10.583" font-family="Noto Mono" letter-spacing="0" word-spacing="0" stroke-width=".265"><tspan x="268.239" y="155.258" id="tspan2639" font-weight="700" font-size="5.644" font-family="Nimbus Mono L">Sign Up</tspan></text></g><g transform="translate(111.767 66.494)" id="g1485" opacity=".7" stroke="#000"><path id="path1481" d="M111.134-46.345h-.014c-1.7 0-3.268 1.508-3.083 3.878.194 2.494 1.351 3.054 2.351 5.3.742 1.665.65 3.139.658 3.151.02.036.054.057.089.057h.003c.036-.002.069-.025.089-.063.007-.014-.104-1.42.633-3.156.994-2.342 2.026-2.828 2.335-5.285.3-2.382-1.362-3.882-3.061-3.882z" fill="#99983e" stroke-width="1.651"/><circle id="circle1483" r="1.191" cy="-33.631" cx="111.157" opacity=".99" stroke-width=".5" stroke-linecap="round" stroke-linejoin="bevel"/></g></g></g></svg>