<svg width="1020" height="500" viewBox="0 0 269.88 132.29" xmlns="http://www.w3.org/2000/svg"><style>.lines{stroke:#a48585;stroke-width:28.45800018;fill:none}</style><g opacity=".508" fill="none" stroke="#000"><path d="M203.74 22.538l-36.018 116.08m50.448-116.08l-28.585 116.08m43.005-116.08l-21.152 116.08m35.582-116.08l-13.719 116.08m28.139-116.08l-6.286 116.08m20.716-116.08l1.147 116.08m13.273-116.08l8.58 116.08m5.85-116.08l16.014 116.08m-1.584-116.08l23.447 116.08M187.4 138.61l-35.568-15.93m79.278 15.93l-73.581-31.167M274.83 138.61L162.72 93.57m155.83 45.04L167.48 80.884m194.78 57.726L171.83 69.239m188.38 53.451L175.85 58.523m180.31 48.927l-176.6-58.842m172.91 44.966L183 39.419m166.09 41.469l-162.9-50.009M346 69.244L189.18 22.922m153.96 35.596l-126.42-35.98m123.79 26.068l-94.93-26.068m92.48 16.881l-63.635-16.881m61.365 8.341l-32.512-8.341m30.392.384l-1.545-.384M322.92 138.61l37.293-15.93M279.2 138.61l76.957-31.167M235.49 138.61l116.98-45.04m-160.7 45.04L349.1 80.884M148.05 138.61l197.94-69.371M151.83 122.69l191.31-64.167M157.53 107.45L340.5 48.608M162.73 93.574l175.34-54.155m-170.6 41.469l168.32-50.009M171.83 69.244l161.84-46.322M175.85 58.518l130.31-35.98m-126.6 26.068l97.753-26.068M183 39.419l65.463-16.881m-62.273 8.341l33.416-8.341m-30.436.384l1.586-.384" transform="matrix(1.2981 0 0 1.3972 -197.089 -31.776)" stroke-width=".132"/><path d="M196.53 22.538l-39.734 116.08m54.154-116.08l-32.301 116.08m46.731-116.08l-24.868 116.08m39.298-116.08l-17.435 116.08m31.855-116.08l-10.002 116.08m24.432-116.08l-2.57 116.08m16.99-116.08l4.864 116.08m9.566-116.08l12.297 116.08m2.123-116.08l19.73 116.08m-5.3-116.08l27.163 116.08" transform="matrix(1.2981 0 0 1.3972 -197.089 -31.776)" stroke-width=".053"/><path d="M190.76 22.538l-42.708 116.08M192.2 22.538l-41.964 116.08m43.404-116.08l-41.221 116.08m42.671-116.08l-40.478 116.08m43.358-116.08l-38.991 116.08m40.431-116.08l-38.248 116.08m39.698-116.08l-37.504 116.08M202.3 22.538l-36.761 116.08m39.641-116.08l-35.275 116.08m36.725-116.08l-34.531 116.08m35.971-116.08l-33.788 116.08m35.228-116.08l-33.045 116.08M212.4 22.538l-31.558 116.08m32.998-116.08l-30.815 116.08m32.255-116.08l-30.071 116.08m31.511-116.08l-29.328 116.08m32.218-116.08l-27.841 116.08m29.281-116.08l-27.098 116.08m28.538-116.08l-26.355 116.08m27.805-116.08l-25.612 116.08m28.492-116.08l-24.125 116.08m25.565-116.08l-23.382 116.08m24.832-116.08l-22.638 116.08m24.078-116.08l-21.895 116.08m24.785-116.08l-20.408 116.08m21.848-116.08l-19.665 116.08m21.105-116.08l-18.922 116.08m20.362-116.08l-18.178 116.08m21.068-116.08l-16.692 116.08m18.132-116.08l-15.949 116.08m17.389-116.08l-15.205 116.08m16.655-116.08l-14.462 116.08m17.342-116.08l-12.975 116.08M249.9 22.538l-12.232 116.08m13.682-116.08l-11.489 116.08m12.929-116.08l-10.745 116.08m13.625-116.08l-9.259 116.08m10.709-116.08l-8.515 116.08m9.955-116.08l-7.772 116.08M260 22.538l-7.029 116.08m9.919-116.08l-5.542 116.08m6.982-116.08l-4.799 116.08m6.239-116.08l-4.056 116.08m5.496-116.08l-3.312 116.08m6.202-116.08l-1.826 116.08m3.266-116.08l-1.083 116.08m2.523-116.08l-.34 116.08m1.79-116.08l.404 116.08m2.476-116.08l1.89 116.08m-.45-116.08l2.634 116.08M280.2 22.538l3.377 116.08m-1.937-116.08l4.12 116.08m-1.24-116.08l5.607 116.08m-4.157-116.08l6.35 116.08m-4.91-116.08l7.094 116.08m-5.654-116.08l7.837 116.08m-4.947-116.08l9.324 116.08m-7.884-116.08l10.067 116.08m-8.627-116.08l10.81 116.08m-9.37-116.08l11.554 116.08m-8.664-116.08l13.04 116.08m-11.6-116.08l13.784 116.08M301.83 22.538l14.527 116.08M303.28 22.538l15.27 116.08m-12.39-116.08l16.757 116.08M307.6 22.538l17.5 116.08m-16.05-116.08l18.243 116.08M310.49 22.538l18.987 116.08M313.37 22.538l20.473 116.08M314.82 22.538l21.217 116.08M316.26 22.538l21.96 116.08M317.7 22.538l22.703 116.08M320.59 22.538l24.19 116.08m-22.75-116.08l24.933 116.08M323.47 22.538l25.676 116.08M324.92 22.538l26.42 116.08M327.8 22.538l27.906 116.08M329.24 22.538l28.65 116.08m-27.2-116.08l29.393 116.08M332.13 22.538l30.136 116.08" transform="matrix(1.2981 0 0 1.3972 -197.089 -31.776)" stroke-width=".026"/><path d="M165.54 138.61l-16.777-7.736m60.487 7.736l-54.506-23.731m98.226 23.731l-92.784-38.262M296.69 138.61L165.15 87.088m175.26 51.522L169.7 74.939m192.69 55.941L173.88 63.774m184.26 51.106l-180.4-61.418m176.53 46.888L181.31 43.924m169.43 43.168l-166.12-52.02m162.89 39.872l-159.8-48.112m156.83 36.941L202.3 22.538m139.5 30.928L231.15 22.538m108.11 21.389L260 22.538m76.9 12.534l-48.053-12.534m45.863 4.294l-17.01-4.293" transform="matrix(1.2981 0 0 1.3972 -197.089 -31.776)" stroke-width=".053"/><path d="M148.05 138.61l-1.857-.877m6.227.877l-5.577-2.618m9.947 2.618l-9.304-4.341m13.684 4.341l-13.037-6.047m21.777 6.047l-20.523-9.407m24.893 9.407l-24.275-11.062m28.645 11.062l-28.033-12.701m32.403 12.701l-31.798-14.323m40.548 14.323l-39.344-17.52m43.714 17.52l-43.126-19.096m47.496 19.096l-46.914-20.656m51.284 20.656l-50.708-22.201m59.458 22.201l-58.311-25.246M218 138.61l-62.121-26.747m66.491 26.747l-65.936-28.234m70.306 28.234l-69.756-29.707m78.506 29.707l-77.412-32.612m81.782 32.612l-81.248-34.044m85.618 34.044l-85.088-35.463M248.6 138.61l-88.934-36.869m97.674 36.869l-96.639-39.643M261.72 138.61L161.22 97.6m104.87 41.01L161.73 96.244m108.73 42.366L162.23 94.901M279.2 138.61L163.22 92.25m120.35 46.36L163.71 90.942m124.24 47.668L164.2 89.646m128.12 48.964L164.68 88.361m136.38 50.249L165.62 85.825m139.81 52.785L166.09 84.574M309.8 138.61L166.55 83.333m147.63 55.277L167.02 82.103m155.9 56.507L167.93 79.674m159.36 58.936L168.37 78.476m163.29 60.134L168.82 77.287m167.21 61.323L169.26 76.108m175.52 62.502L170.14 73.78m179.01 64.83L170.56 72.631m182.96 65.979L170.99 71.491m186.9 67.119L171.41 70.361m192.81 67.379L172.25 68.134M363.75 136L172.66 67.032M363.3 134.27L173.08 65.931m189.76 66.639L173.48 64.852m188.47 64.358L174.28 62.708m187.23 64.842L174.68 61.644m186.39 64.266l-186-65.319m185.57 63.699L175.46 59.551m184.33 61.539L176.23 57.487m183.14 62.033L176.61 56.475m182.35 61.485L177 55.464m181.54 60.946L177.36 54.457m180.37 58.913L178.1 52.481m179.23 59.389L178.47 51.503m178.47 58.877l-178.1-59.852m177.71 58.382L179.2 49.566M355.77 106L179.91 47.654m175.48 56.916L180.26 46.713m174.76 56.437l-174.4-57.374m174.02 55.974L180.96 44.853M353.9 98.972l-172.25-55.96m171.89 54.592L181.99 42.103m171.19 54.146L182.33 41.202m170.49 53.703L182.66 40.307m169.46 51.948L183.33 38.537m168.44 52.41L183.66 37.661m167.76 51.99L183.98 36.792m167.1 51.574L184.3 35.929M350.41 85.83L184.94 34.222m165.13 50.356L185.25 33.377m164.49 49.961L185.57 32.539m163.85 49.569L185.89 31.706m162.88 47.973L186.5 30.058M348.45 78.48L186.8 29.243m161.34 48.049L187.11 28.434m160.71 47.679L187.41 27.63M347.2 73.785L188 26.039m158.9 46.597L188.3 25.252m158.29 46.244l-158-47.026m157.7 45.895L188.88 23.693M345.7 68.132L190.76 22.538m154.65 44.491L193.65 22.538m151.47 43.397L196.53 22.538m148.3 42.312L199.42 22.538m144.84 40.167L205.19 22.538m138.78 39.108l-135.9-39.108m135.62 38.057L210.95 22.538m132.47 37.014L213.84 22.538m129.03 34.954L219.61 22.538M342.6 56.474L222.5 22.538m119.83 32.925L225.38 22.538m116.68 31.923l-113.8-31.923m113.28 29.941l-107.5-29.941M341.28 51.5L236.93 22.538m104.09 27.99l-101.21-27.99m100.95 27.025l-98.07-27.025m97.56 25.118l-91.792-25.118M340 46.713l-88.656-24.175m88.406 23.24l-85.522-23.239m85.282 22.31l-82.39-22.311m81.9 20.474l-76.131-20.474m75.891 19.566l-73.004-19.566m72.764 18.664l-69.88-18.664m69.64 17.769l-66.756-17.769m66.286 15.999l-60.515-15.999m60.275 15.123l-57.397-15.123m57.167 14.254l-54.281-14.254m54.051 13.391l-51.166-13.391m50.716 11.684l-44.942-11.684m44.712 10.839l-41.832-10.839m41.612 10.001l-38.724-10.001m38.504 9.168l-35.617-9.168m35.177 7.52l-29.409-7.52m29.189 6.705l-26.307-6.705m26.097 5.896l-23.207-5.896m22.997 5.092l-20.108-5.092m19.678 3.501l-13.914-3.5m13.704 2.713l-10.82-2.713m10.61 1.931l-7.727-1.931m7.527 1.154l-4.635-1.155" transform="matrix(1.2981 0 0 1.3972 -197.089 -31.776)" stroke-width=".026"/><path d="M344.78 138.61l17.615-7.736m-61.335 7.736l57.077-23.731M257.34 138.61l96.928-38.262M213.63 138.61l137.12-51.522M169.91 138.61l177.6-63.671M148.76 130.88l195.78-67.106M154.75 114.88L341.8 53.462M160.19 100.35l179.07-56.426M165.15 87.092l171.75-52.02M169.7 74.944l165.01-48.112M173.88 63.773l146.71-41.235M177.74 53.466l114-30.928M181.31 43.927l81.576-21.389M184.62 35.072l49.411-12.534m-46.321 4.294l17.475-4.293" transform="matrix(1.2981 0 0 1.3972 -197.089 -31.776)" stroke-width=".053"/><path transform="matrix(1.2981 0 0 1.3972 -197.089 -31.776)" d="M362.26 138.61l1.952-.877m-6.322.877l5.861-2.618m-10.231 2.618l9.774-4.341m-14.144 4.341l13.692-6.047m-22.432 6.047l21.542-9.407m-25.922 9.407l25.473-11.062M331.66 138.61l29.409-12.701M327.29 138.61l33.349-14.323M318.55 138.61l41.242-17.52m-45.612 17.52l45.195-19.096M309.8 138.61l49.151-20.656M305.43 138.61l53.112-22.201M296.69 138.61l61.045-25.246M292.32 138.61l65.017-26.747M287.95 138.61l68.994-28.234M283.57 138.61l72.973-29.707M274.83 138.61l80.944-32.612M270.46 138.61l84.935-34.044M266.09 138.61l88.929-35.463M261.72 138.61l92.927-36.869M252.97 138.61L353.9 98.967M248.6 138.61L353.54 97.6m-109.31 41.01l108.95-42.366M239.86 138.61l112.97-43.709M231.11 138.61l121-46.36m-125.37 46.36l125.03-47.668m-129.4 47.668l129.05-48.964M218 138.61l133.08-50.249M209.25 138.61L350.4 85.825M204.88 138.61l145.19-54.036M200.51 138.61l149.23-55.277m-153.6 55.277l153.28-56.507M187.4 138.61l161.38-58.936M183.02 138.61l165.43-60.134m-169.8 60.134l169.48-61.323M174.28 138.61l173.54-62.502M165.54 138.61l181.67-64.83m-186.04 64.83L346.9 72.631M156.79 138.61l189.8-67.119M152.42 138.61l193.87-68.249m-200.1 67.379L345.7 68.134M146.85 136l198.56-68.968M147.49 134.27l197.62-68.339M148.13 132.57l196.7-67.718M149.39 129.21l194.87-66.502M150.01 127.55l193.97-65.906M150.62 125.91L343.7 60.591M151.23 124.29l192.19-64.739m-191 61.539l190.45-63.603M153.01 119.52l189.58-63.045M153.6 117.96l188.73-62.496M154.18 116.41l187.89-61.953M155.32 113.37l186.22-60.889M155.88 111.87l185.4-60.367M156.43 110.38l184.58-59.852M156.99 108.91l183.77-59.344M158.07 106l182.18-58.346M158.61 104.57L340 46.713M159.14 103.15l180.61-57.374M159.67 101.75l179.84-56.897M160.7 98.972l178.31-55.96M161.22 97.604l177.56-55.501M161.72 96.249l176.81-55.047m-176.3 53.703L338.3 40.307M163.22 92.255l174.61-53.718m-174.12 52.41l173.88-53.286m-173.4 51.99l173.17-52.859M164.67 88.366l172.46-52.437M165.62 85.83l171.05-51.608M166.09 84.578l170.36-51.201M166.56 83.338l169.67-50.799M167.02 82.108l168.99-50.402M167.93 79.679l167.64-49.621M168.38 78.48l166.98-49.237M168.82 77.292l166.32-48.858M169.26 76.113L334.92 27.63M170.13 73.785L334.5 26.039M170.56 72.636l163.73-47.384m-163.3 46.244L334.08 24.47M171.41 70.365l162.46-46.672M172.25 68.132l159.88-45.594M172.66 67.029l156.58-44.491M173.07 65.935l153.29-43.397M173.48 64.85l149.99-42.312M174.28 62.705L317.7 22.538M174.68 61.646l140.14-39.108M175.07 60.595l136.86-38.057M175.46 59.552l133.59-37.014M176.23 57.492l127.05-34.954M176.61 56.474l123.78-33.936m-123.4 32.925l120.52-32.925M177.37 54.461l117.26-31.923M178.11 52.479l110.74-29.941M178.48 51.5l107.49-28.962m-107.13 27.99l104.24-27.99M179.2 49.563l101-27.025M179.91 47.656l94.512-25.118M180.27 46.713l91.274-24.175m-90.924 23.24l88.039-23.239m-87.699 22.31l84.806-22.311M181.65 43.012l78.349-20.474M181.99 42.104l75.123-19.566M182.33 41.202l71.901-18.664M182.66 40.307l68.681-17.769M183.33 38.537l62.248-15.999M183.66 37.661l59.035-15.123M183.98 36.792l55.825-14.254M184.3 35.929l52.617-13.391M184.94 34.222l46.207-11.684M185.26 33.377l43.006-10.839M185.57 32.539l39.807-10.001m-39.497 9.168l36.61-9.168m-35.99 7.52l30.223-7.52m-29.913 6.705l27.033-6.705m-26.733 5.896l23.845-5.896M187.41 27.63l20.659-5.092m-20.059 3.501l14.293-3.5M188.3 25.252l11.114-2.713M188.59 24.47l7.936-1.931m-7.646 1.154l4.76-1.155" stroke-width=".026"/><path d="M103.72 112.64L147.641-4.09h144.99l31.279 116.73H103.72" stroke-width=".265" transform="matrix(1.2981 0 0 1.3972 -143.45 5.159)"/></g><path id="demo-signup" class="lines" d="M225.267 96.27l16.077-21.974c2.005-2.94 2.4-4.87-.673-10.221l-17.609-30.756" fill="none" stroke-width="1.5" stroke="#a48585"/><path id="cs-demo" class="lines" d="M174.855 52.237l6.398-.049c3.645-.112 4.386 4.408 5.482 8.374l5.446 19.52c1.088 4.11 3.094 5.57 6.195 7.517l26.892 8.671" fill="none" stroke-width="1.5" stroke="#a48585"/><path id="wp-demo" class="lines" d="M170.236 24.973l7.624-.033c3.056-.079 4.038 1.026 4.865 3.695l14.5 48.44c1.175 3.984 1.521 4.362 4.59 6.228l23.453 12.969" fill="none" stroke-width="1.5" stroke="#a48585"/><path id="product-signup" class="lines" d="M115.288 14.753l73.534-.304c3.65-.036 4.59-.124 7.89 2.11l26.35 16.758" fill="none" stroke-width="1.5" stroke="#a48585"/><path id="sh-signup" class="lines" d="M223.063 33.317l-4.502 3.77c-2.425 2.218-4.007 1.98-6.538 1.966l-41.389-.024c-6.564.313-7.394 1.332-11.179 4.021l-37.2 31.403" fill="none" stroke-width="1.5" stroke="#a48585"/><path id="pricing-sh" class="lines" d="M122.253 74.455l-19.873.088c-7.915.158-7.833-.513-11.587-4.51L74.107 52.54" fill="none" stroke-width="1.5" stroke="#a48585"/><path id="pricing-product" class="lines" d="M115.288 14.753l-13.478 8.73c-3.346 1.884-3.662 4.302-4.37 6.448l-3.271 10.263c-1.503 3.624-5.064 5.396-9.165 7.357l-10.896 4.985" fill="none" stroke-width="1.5" stroke="#a48585"/><path id="analytic-wp" class="lines" d="M170.236 24.973l-14.904.114c-4.123.031-5.877.62-5.441 4.782 1.66 22.1 7.693 30.844 10.41 71.426.756 10.828-9.813 5.445-14.136 6.545l-35.444 15.012" fill="none" stroke-width="1.5" stroke="#a48585"/><path id="analytic-demo" class="lines" d="M110.721 122.852l116.392-.11c9.517-.008 7.049-6.835 7.049-6.835L225.27 96.27" fill="none" stroke-width="1.5" stroke="#a48585"/><path id="industry-cs" class="lines" d="M46.035 103.092l44.127-37.29c6.34-5.394 6.662-5.85 14.573-5.794l52.383.281c5.122-.103 5.474-.371 10.121-3.269l7.618-4.783" fill="none" stroke-width="1.5" stroke="#a48585"/><path id="industry-analytic" class="lines" d="M46.035 103.092l-7.934 10.198c-8.17 8.512-6.752 10.075 1.007 9.652l52.015.095 19.6-.185" fill="none" stroke-width="1.5" stroke="#a48585"/><path id="pricing-demo" class="lines" d="M225.267 96.27l-157.184.796c-4.603-.03-4.693-2.953-3.892-5.3l10.975-39.227" fill="none" stroke-width="1.5" stroke="#a48585"/><path id="pricing-singup" class="lines" d="M75.167 52.539l34.099-.009c5.727-.301 7.013-.59 8.079-5.323l1.125-9.125c.356-3.691 2.23-4.58 6.872-4.796l97.723.033" fill="none" stroke-width="1.5" stroke="#a48585"/><path id="home-pricing" class="lines" d="M75.167 52.539l-8.365.001c-5 .002-5.02.02-1.916-6.695l3.85-8.536c1.082-2.402.553-4.212-2.724-4.183l-1.293-.01c-3.326.08-4.966-.366-5.006-2.924l-.575-7.2" fill="none" stroke-width="1.5" stroke="#a48585"/><path id="home-product" class="lines" d="M59.138 22.991l28.043-.001c3.805 0 6.259-.279 7.522-4.23 1.187-3.71 2.295-4.084 7.77-4.084l12.817.08" fill="none" stroke-width="1.5" stroke="#a48585"/><path id="home-industry" class="lines" d="M59.138 22.991L33.673 65.993c-5.005 8.736-4.894 8.667 3.468 8.664l6.576-.003c8.496-.003 8.394.043 4.874 7.871l-6.957 15.47c-1.88 4.18-.502 5.094 1.408 5.099l2.993-.002" fill="none" stroke-width="1.5" stroke="#a48585"/><text x="17.654" y="137.088" style="font-feature-settings:normal;font-variant-caps:normal;font-variant-ligatures:normal;font-variant-numeric:normal;line-height:125%" font-family="Noto Mono" font-size="10.583" letter-spacing="0" stroke-width=".265" word-spacing="0" transform="translate(46.832 -118.85)" id="home"><tspan x="17.654" y="137.088" font-family="Nimbus Mono L" font-size="5.644" font-weight="700">Home</tspan></text><text x="103.696" y="121.471" style="font-feature-settings:normal;font-variant-caps:normal;font-variant-ligatures:normal;font-variant-numeric:normal;line-height:125%" font-family="Noto Mono" font-size="10.583" letter-spacing="0" stroke-width=".265" word-spacing="0" transform="translate(16.323 -111.31)" id="product"><tspan x="103.696" y="121.471" font-family="Nimbus Mono L" font-size="5.644" font-weight="700">Product</tspan></text><text transform="translate(-18.5 -120.623)" x="142.466" y="142.169" style="font-feature-settings:normal;font-variant-caps:normal;font-variant-ligatures:normal;font-variant-numeric:normal;line-height:125%" font-family="Noto Mono" font-size="10.583" letter-spacing="0" stroke-width=".265" word-spacing="0" id="wp"><tspan x="142.466" y="142.169" font-family="Nimbus Mono L" font-size="5.644" font-weight="700">White Papers</tspan></text><text x="227.225" y="-7.143" style="font-feature-settings:normal;font-variant-caps:normal;font-variant-ligatures:normal;font-variant-numeric:normal;line-height:125%" font-family="Noto Mono" font-size="10.583" letter-spacing="0" stroke-width=".265" word-spacing="0" transform="translate(2.15 104.63)" id="demo"><tspan x="227.225" y="-7.143" font-family="Nimbus Mono L" font-size="5.644" font-weight="700">Demo Request</tspan></text><text x="173.187" y="224.323" style="font-feature-settings:normal;font-variant-caps:normal;font-variant-ligatures:normal;font-variant-numeric:normal;line-height:125%" font-family="Noto Mono" font-size="10.583" letter-spacing="0" stroke-width=".265" word-spacing="0" transform="translate(0 -164.71)" id="cs"><tspan x="173.187" y="224.323" font-family="Nimbus Mono L" font-size="5.644" font-weight="700">Case Studies</tspan></text><text x="114.884" y="245.441" style="font-feature-settings:normal;font-variant-caps:normal;font-variant-ligatures:normal;font-variant-numeric:normal;line-height:125%" font-family="Noto Mono" font-size="10.583" letter-spacing="0" stroke-width=".265" word-spacing="0" transform="translate(0 -164.71)" id="sh"><tspan x="114.884" y="245.441" font-family="Nimbus Mono L" font-size="5.644" font-weight="700">Self Hosted</tspan></text><text x="29.154" y="192.853" style="font-feature-settings:normal;font-variant-caps:normal;font-variant-ligatures:normal;font-variant-numeric:normal;line-height:125%" font-family="Noto Mono" font-size="10.583" letter-spacing="0" stroke-width=".265" word-spacing="0" transform="translate(20.146 -133.25)" id="pricing"><tspan x="29.154" y="192.853" font-family="Nimbus Mono L" font-size="5.644" font-weight="700">Pricing</tspan></text><text x="50.617" y="237.715" style="font-feature-settings:normal;font-variant-caps:normal;font-variant-ligatures:normal;font-variant-numeric:normal;line-height:125%" font-family="Noto Mono" font-size="10.583" letter-spacing="0" stroke-width=".265" word-spacing="0" transform="translate(.915 -131.31)" id="industry"><tspan x="50.617" y="237.715" font-family="Nimbus Mono L" font-size="5.644" font-weight="700">Industries</tspan></text><text x="107.667" y="269.18" style="font-feature-settings:normal;font-variant-caps:normal;font-variant-ligatures:normal;font-variant-numeric:normal;line-height:125%" font-family="Noto Mono" font-size="10.583" letter-spacing="0" stroke-width=".265" word-spacing="0" transform="translate(-3.463 -140.73)" id="analytic"><tspan x="107.667" y="269.18" font-family="Nimbus Mono L" font-size="5.644" font-weight="700">Analytics</tspan></text><g transform="translate(3.205 48.235)" opacity=".7" stroke="#000"><path d="M111.13-46.345h-.014c-1.7 0-3.267 1.508-3.083 3.878.194 2.493 1.351 3.053 2.352 5.3.741 1.665.65 3.138.657 3.151.021.035.054.056.089.056h.003c.036-.001.07-.024.09-.062.006-.014-.105-1.42.632-3.156.994-2.342 2.026-2.828 2.336-5.285.3-2.383-1.362-3.882-3.062-3.882z" fill="#99983e" stroke-width="1.651"/><circle cx="111.16" cy="-33.631" r="1.191" opacity=".99" stroke-linecap="round" stroke-linejoin="bevel" stroke-width=".5"/></g><g transform="translate(113.99 129.26)" opacity=".7" stroke="#000"><path d="M111.13-46.345h-.014c-1.7 0-3.267 1.508-3.083 3.878.194 2.493 1.351 3.053 2.352 5.3.741 1.665.65 3.138.657 3.151.021.035.054.056.089.056h.003c.036-.001.07-.024.09-.062.006-.014-.105-1.42.632-3.156.994-2.342 2.026-2.828 2.336-5.285.3-2.383-1.362-3.882-3.062-3.882z" fill="#99983e" stroke-width="1.651"/><circle cx="111.16" cy="-33.631" r="1.191" opacity=".99" stroke-linecap="round" stroke-linejoin="bevel" stroke-width=".5"/></g><g transform="translate(-.136 156.24)" opacity=".7" stroke="#000"><path d="M111.13-46.345h-.014c-1.7 0-3.267 1.508-3.083 3.878.194 2.493 1.351 3.053 2.352 5.3.741 1.665.65 3.138.657 3.151.021.035.054.056.089.056h.003c.036-.001.07-.024.09-.062.006-.014-.105-1.42.632-3.156.994-2.342 2.026-2.828 2.336-5.285.3-2.383-1.362-3.882-3.062-3.882z" fill="#99983e" stroke-width="1.651"/><circle cx="111.16" cy="-33.631" r="1.191" opacity=".99" stroke-linecap="round" stroke-linejoin="bevel" stroke-width=".5"/></g><g transform="translate(63.977 85.677)" opacity=".85" stroke="#000"><path d="M111.13-46.345h-.014c-1.7 0-3.267 1.508-3.083 3.878.194 2.493 1.351 3.053 2.352 5.3.741 1.665.65 3.138.657 3.151.021.035.054.056.089.056h.003c.036-.001.07-.024.09-.062.006-.014-.105-1.42.632-3.156.994-2.342 2.026-2.828 2.336-5.285.3-2.383-1.362-3.882-3.062-3.882z" fill="#99983e" opacity=".7" stroke-width="1.651"/><circle cx="111.16" cy="-33.631" r="1.191" opacity=".7" stroke-linecap="round" stroke-linejoin="bevel" stroke-width=".5"/></g><g transform="translate(58.8 58.393)" opacity=".7" stroke="#000"><path d="M111.13-46.345h-.014c-1.7 0-3.267 1.508-3.083 3.878.194 2.493 1.351 3.053 2.352 5.3.741 1.665.65 3.138.657 3.151.021.035.054.056.089.056h.003c.036-.001.07-.024.09-.062.006-.014-.105-1.42.632-3.156.994-2.342 2.026-2.828 2.336-5.285.3-2.383-1.362-3.882-3.062-3.882z" fill="#99983e" stroke-width="1.651"/><circle cx="111.16" cy="-33.631" r="1.191" opacity=".99" stroke-linecap="round" stroke-linejoin="bevel" stroke-width=".5"/></g><g transform="translate(11.308 107.75)" opacity=".7" stroke="#000"><path d="M111.13-46.345h-.014c-1.7 0-3.267 1.508-3.083 3.878.194 2.493 1.351 3.053 2.352 5.3.741 1.665.65 3.138.657 3.151.021.035.054.056.089.056h.003c.036-.001.07-.024.09-.062.006-.014-.105-1.42.632-3.156.994-2.342 2.026-2.828 2.336-5.285.3-2.383-1.362-3.882-3.062-3.882z" fill="#99983e" stroke-width="1.651"/><circle cx="111.16" cy="-33.631" r="1.191" opacity=".99" stroke-linecap="round" stroke-linejoin="bevel" stroke-width=".5"/></g><g transform="translate(-65.531 136.81)" opacity=".7" stroke="#000"><path d="M111.13-46.345h-.014c-1.7 0-3.267 1.508-3.083 3.878.194 2.493 1.351 3.053 2.352 5.3.741 1.665.65 3.138.657 3.151.021.035.054.056.089.056h.003c.036-.001.07-.024.09-.062.006-.014-.105-1.42.632-3.156.994-2.342 2.026-2.828 2.336-5.285.3-2.383-1.362-3.882-3.062-3.882z" fill="#99983e" stroke-width="1.651"/><circle cx="111.16" cy="-33.631" r="1.191" opacity=".99" stroke-linecap="round" stroke-linejoin="bevel" stroke-width=".5"/></g><g transform="translate(-36.332 85.816)" opacity=".7" stroke="#000"><path d="M111.13-46.345h-.014c-1.7 0-3.267 1.508-3.083 3.878.194 2.493 1.351 3.053 2.352 5.3.741 1.665.65 3.138.657 3.151.021.035.054.056.089.056h.003c.036-.001.07-.024.09-.062.006-.014-.105-1.42.632-3.156.994-2.342 2.026-2.828 2.336-5.285.3-2.383-1.362-3.882-3.062-3.882z" fill="#99983e" stroke-width="1.651"/><circle cx="111.16" cy="-33.631" r="1.191" opacity=".99" stroke-linecap="round" stroke-linejoin="bevel" stroke-width=".5"/></g><g transform="translate(-51.824 56.22)" opacity=".7" stroke="#000"><path d="M111.13-46.345h-.014c-1.7 0-3.267 1.508-3.083 3.878.194 2.493 1.351 3.053 2.352 5.3.741 1.665.65 3.138.657 3.151.021.035.054.056.089.056h.003c.036-.001.07-.024.09-.062.006-.014-.105-1.42.632-3.156.994-2.342 2.026-2.828 2.336-5.285.3-2.383-1.362-3.882-3.062-3.882z" fill="#99983e" stroke-width="1.651"/><circle cx="111.16" cy="-33.631" r="1.191" opacity=".99" stroke-linecap="round" stroke-linejoin="bevel" stroke-width=".5"/></g><text x="268.239" y="155.258" style="font-feature-settings:normal;font-variant-caps:normal;font-variant-ligatures:normal;font-variant-numeric:normal;line-height:125%" font-family="Noto Mono" font-size="10.583" letter-spacing="0" stroke-width=".265" word-spacing="0" transform="translate(-40.572 -125.98)" id="signup"><tspan x="268.239" y="155.258" font-family="Nimbus Mono L" font-size="5.644" font-weight="700">Sign Up</tspan></text><g transform="translate(111.77 66.494)" opacity=".7" stroke="#000"><path d="M111.13-46.345h-.014c-1.7 0-3.267 1.508-3.083 3.878.194 2.493 1.351 3.053 2.352 5.3.741 1.665.65 3.138.657 3.151.021.035.054.056.089.056h.003c.036-.001.07-.024.09-.062.006-.014-.105-1.42.632-3.156.994-2.342 2.026-2.828 2.336-5.285.3-2.383-1.362-3.882-3.062-3.882z" fill="#99983e" stroke-width="1.651"/><circle cx="111.16" cy="-33.631" r="1.191" opacity=".99" stroke-linecap="round" stroke-linejoin="bevel" stroke-width=".5"/></g></svg>