<svg width="100" height="100" viewBox="0 0 26.458 26.458" xmlns="http://www.w3.org/2000/svg"><path d="M13.758.402v4.162a8.69 8.69 0 0 1 7.548 5.495l3.952-1.284a12.846 12.846 0 0 0-11.5-8.373zm11.83 9.378l-3.955 1.286a8.69 8.69 0 0 1 .287 2.163 8.69 8.69 0 0 1-3.18 6.712l2.44 3.36a12.846 12.846 0 0 0 4.895-10.072 12.846 12.846 0 0 0-.487-3.448zM8.563 20.55l-2.446 3.366a12.846 12.846 0 0 0 7.112 2.16 12.846 12.846 0 0 0 7.098-2.149l-2.443-3.362a8.69 8.69 0 0 1-4.655 1.355 8.69 8.69 0 0 1-4.667-1.37zM.874 9.784a12.846 12.846 0 0 0-.491 3.445A12.846 12.846 0 0 0 5.255 23.3l2.448-3.368a8.69 8.69 0 0 1-3.165-6.703 8.69 8.69 0 0 1 .285-2.162zM12.7.41A12.846 12.846 0 0 0 1.198 8.776l3.949 1.283A8.69 8.69 0 0 1 12.7 4.557z" opacity=".7"/></svg>